ISO-10303-21;
HEADER;
/* Generated by software containing ST-Developer
 * from STEP Tools, Inc. (www.steptools.com) 
 */
/* OPTION: using custom renumber hook */

FILE_DESCRIPTION(
/* description */ ('STEP AP242 Edition 2',
'CAx-IF Rec.Pracs.---Representation and Presentation of Product Manufa
cturing Information (PMI)---4.0---2014-10-13',
'CAx-IF Rec.Pracs.---3D Tessellated Geometry---0.4---2014-09-14','2;1',
'CAx-IF Rec.Pracs.---User Defined Attributes---1.5---2016-08-15'),
/* implementation_level */ '2;1');

FILE_NAME(
/* name */ 'Eye - Open CASCADE STEP translator 7.5 1.1',
/* time_stamp */ '2026-08-05T23:53:50Z',
/* author */ (''),
/* organization */ (''),
/* preprocessor_version */ 'ST-DEVELOPER v20',
/* originating_system */ 'ONSHAPE BY PTC INC, 1.218',
/* authorisation */ '  ');

FILE_SCHEMA (('AP242_MANAGED_MODEL_BASED_3D_ENGINEERING_MIM_LF { 1 0 10303 442 3 1 4 }'));
ENDSEC;

DATA;
#10=SHAPE_REPRESENTATION_RELATIONSHIP('','',#79,#11);
#11=MANIFOLD_SURFACE_SHAPE_REPRESENTATION('',(#77),#288);
#12=CIRCLE('',#85,0.75);
#13=CYLINDRICAL_SURFACE('',#82,0.2);
#14=CYLINDRICAL_SURFACE('',#84,0.75);
#15=ORIENTED_EDGE('',*,*,#27,.F.);
#16=ORIENTED_EDGE('',*,*,#28,.F.);
#17=ORIENTED_EDGE('',*,*,#29,.F.);
#18=ORIENTED_EDGE('',*,*,#30,.F.);
#19=ORIENTED_EDGE('',*,*,#29,.T.);
#20=ORIENTED_EDGE('',*,*,#30,.T.);
#21=ORIENTED_EDGE('',*,*,#31,.F.);
#22=ORIENTED_EDGE('',*,*,#31,.T.);
#23=ORIENTED_EDGE('',*,*,#32,.F.);
#24=ORIENTED_EDGE('',*,*,#27,.T.);
#25=ORIENTED_EDGE('',*,*,#28,.T.);
#26=ORIENTED_EDGE('',*,*,#32,.T.);
#27=EDGE_CURVE('',#33,#34,#39,.F.);
#28=EDGE_CURVE('',#34,#33,#40,.F.);
#29=EDGE_CURVE('',#35,#36,#41,.F.);
#30=EDGE_CURVE('',#36,#35,#42,.F.);
#31=EDGE_CURVE('',#37,#37,#43,.T.);
#32=EDGE_CURVE('',#38,#38,#12,.T.);
#33=VERTEX_POINT('',#146);
#34=VERTEX_POINT('',#147);
#35=VERTEX_POINT('',#208);
#36=VERTEX_POINT('',#209);
#37=VERTEX_POINT('',#281);
#38=VERTEX_POINT('',#285);
#39=B_SPLINE_CURVE_WITH_KNOTS('',3,(#103,#104,#105,#106,#107,#108,#109,
#110,#111,#112,#113,#114,#115,#116,#117,#118,#119,#120,#121,#122,#123,#124,
#125,#126,#127,#128,#129,#130,#131,#132,#133,#134,#135,#136,#137,#138,#139,
#140,#141,#142,#143,#144,#145),.UNSPECIFIED.,.F.,.F.,(4,1,1,1,1,1,1,1,1,
1,1,1,1,1,1,1,1,1,1,1,1,1,1,1,1,1,1,1,1,1,1,1,1,1,1,1,1,1,1,1,4),(180.00222950045,
185.62722950045,191.25222950045,196.87722950045,202.50222950045,208.12722950045,
213.75222950045,219.37722950045,225.00222950045,230.62722950045,233.43972950045,
236.25222950045,239.06472950045,240.47097950045,241.87722950045,244.68972950045,
247.50222950045,253.12722950045,258.75222950045,264.37722950045,270.00222950045,
275.62722950045,281.25222950045,286.87722950045,292.50222950045,295.31472950045,
298.12722950045,299.53347950045,300.93972950045,303.75222950045,306.56472950045,
309.37722950045,315.00222950045,320.62722950045,326.25222950045,331.87722950045,
337.50222950045,343.12722950045,348.75222950045,354.37722950045,360.00222950045),
 .UNSPECIFIED.);
#40=B_SPLINE_CURVE_WITH_KNOTS('',3,(#148,#149,#150,#151,#152,#153,#154,
#155,#156,#157,#158,#159,#160,#161,#162,#163,#164,#165,#166,#167,#168,#169,
#170,#171,#172,#173,#174,#175,#176,#177,#178,#179,#180,#181,#182,#183,#184,
#185,#186,#187,#188),.UNSPECIFIED.,.F.,.F.,(4,1,1,1,1,1,1,1,1,1,1,1,1,1,
1,1,1,1,1,1,1,1,1,1,1,1,1,1,1,1,1,1,1,1,1,1,1,1,4),(0.00222950045007673,
5.62722950045007,11.2522295004501,16.8772295004501,22.5022295004501,28.1272295004501,
33.7522295004501,39.3772295004501,45.0022295004501,50.6272295004501,56.2522295004501,
61.8772295004501,67.5022295004501,73.1272295004501,78.7522295004501,81.5647295004501,
84.3772295004501,87.1897295004501,88.5959795004501,90.00222950045,91.40847950045,
92.81472950045,95.62722950045,98.43972950045,101.25222950045,106.87722950045,
112.50222950045,118.12722950045,123.75222950045,129.37722950045,135.00222950045,
140.62722950045,146.25222950045,151.87722950045,157.50222950045,163.12722950045,
168.75222950045,174.37722950045,180.00222950045),.UNSPECIFIED.);
#41=B_SPLINE_CURVE_WITH_KNOTS('',3,(#189,#190,#191,#192,#193,#194,#195,
#196,#197,#198,#199,#200,#201,#202,#203,#204,#205,#206,#207),
 .UNSPECIFIED.,.F.,.F.,(4,1,1,1,1,1,1,1,1,1,1,1,1,1,1,1,4),(0.,0.0625,0.125,
0.1875,0.25,0.3125,0.375,0.4375,0.5,0.5625,0.625,0.6875,0.75,0.8125,0.875,
0.9375,1.),.UNSPECIFIED.);
#42=B_SPLINE_CURVE_WITH_KNOTS('',3,(#210,#211,#212,#213,#214,#215,#216,
#217,#218,#219,#220),.UNSPECIFIED.,.F.,.F.,(4,1,1,1,1,1,1,1,4),(0.,0.125,
0.25,0.375,0.5,0.625,0.75,0.875,1.),.UNSPECIFIED.);
#43=B_SPLINE_CURVE_WITH_KNOTS('',3,(#222,#223,#224,#225,#226,#227,#228,
#229,#230,#231,#232,#233,#234,#235,#236,#237,#238,#239,#240,#241,#242,#243,
#244,#245,#246,#247,#248,#249,#250,#251,#252,#253,#254,#255,#256,#257,#258,
#259,#260,#261,#262,#263,#264,#265,#266,#267,#268,#269,#270,#271,#272,#273,
#274,#275,#276,#277,#278,#279,#280),.UNSPECIFIED.,.T.,.F.,(1,1,1,1,1,1,
1,1,1,1,1,1,1,1,1,1,1,1,1,1,1,1,1,1,1,1,1,1,1,1,1,1,1,1,1,1,1,1,1,1,1,1,
1,1,1,1,1,1,1,1,1,1,1,1,1,1,1,1,1,1,1,1,1),(-11.2476588736116,-5.62265887361161,
-2.81015887361161,0.00234112638839346,2.81484112638839,5.62734112638839,
11.2523411263884,16.8773411263884,22.5023411263884,33.7523411263884,45.0023411263884,
56.2523411263884,67.5023411263884,73.1273411263884,78.7523411263884,84.3773411263884,
87.1898411263884,90.0023411263884,92.8148411263884,95.6273411263884,101.252341126388,
106.877341126388,112.502341126388,123.752341126388,135.002341126388,146.252341126388,
157.502341126388,163.127341126388,168.752341126388,174.377341126388,177.189841126388,
180.002341126388,182.814841126388,185.627341126388,191.252341126388,196.877341126388,
202.502341126388,213.752341126388,225.002341126388,236.252341126389,247.502341126389,
253.127341126389,258.752341126389,264.377341126389,267.189841126389,270.002341126389,
272.814841126389,275.627341126389,281.252341126389,286.877341126389,292.502341126389,
303.752341126389,315.002341126389,326.252341126389,337.502341126389,343.127341126389,
348.752341126389,354.377341126389,357.189841126389,360.002341126389,362.814841126389,
365.627341126389,371.252341126389),.UNSPECIFIED.);
#44=EDGE_LOOP('',(#15,#16));
#45=EDGE_LOOP('',(#17,#18));
#46=EDGE_LOOP('',(#19,#20));
#47=EDGE_LOOP('',(#21));
#48=EDGE_LOOP('',(#22));
#49=EDGE_LOOP('',(#23));
#50=EDGE_LOOP('',(#24,#25));
#51=EDGE_LOOP('',(#26));
#52=FACE_BOUND('',#44,.T.);
#53=FACE_BOUND('',#45,.T.);
#54=FACE_BOUND('',#46,.T.);
#55=FACE_BOUND('',#47,.T.);
#56=FACE_BOUND('',#48,.T.);
#57=FACE_BOUND('',#49,.T.);
#58=FACE_BOUND('',#50,.T.);
#59=FACE_BOUND('',#51,.T.);
#60=PLANE('',#81);
#61=PLANE('',#83);
#62=PLANE('',#86);
#63=ADVANCED_FACE('',(#52,#53),#60,.F.);
#64=ADVANCED_FACE('',(#54,#55),#13,.T.);
#65=ADVANCED_FACE('',(#56),#61,.T.);
#66=ADVANCED_FACE('',(#57,#58),#14,.T.);
#67=ADVANCED_FACE('',(#59),#62,.T.);
#68=CLOSED_SHELL('',(#63,#64,#65,#66,#67));
#69=STYLED_ITEM('',(#70),#77);
#70=PRESENTATION_STYLE_ASSIGNMENT((#71));
#71=SURFACE_STYLE_USAGE(.BOTH.,#72);
#72=SURFACE_SIDE_STYLE('',(#73));
#73=SURFACE_STYLE_FILL_AREA(#74);
#74=FILL_AREA_STYLE('',(#75));
#75=FILL_AREA_STYLE_COLOUR('',#76);
#76=COLOUR_RGB('',0.980392156862745,0.713725490196078,0.00392156862745098);
#77=SHELL_BASED_SURFACE_MODEL('Open CASCADE STEP translator 7.5 1.1',(#68));
#78=SHAPE_DEFINITION_REPRESENTATION(#293,#79);
#79=SHAPE_REPRESENTATION('Open CASCADE STEP translator 7.5 1.1',(#80),#288);
#80=AXIS2_PLACEMENT_3D('',#101,#87,#88);
#81=AXIS2_PLACEMENT_3D('',#102,#89,#90);
#82=AXIS2_PLACEMENT_3D('',#221,#91,#92);
#83=AXIS2_PLACEMENT_3D('',#282,#93,#94);
#84=AXIS2_PLACEMENT_3D('',#283,#95,#96);
#85=AXIS2_PLACEMENT_3D('',#284,#97,#98);
#86=AXIS2_PLACEMENT_3D('',#286,#99,#100);
#87=DIRECTION('',(0.,0.,1.));
#88=DIRECTION('',(1.,0.,0.));
#89=DIRECTION('',(0.937771744136218,-4.95738500174015E-6,-0.347252294269081));
#90=DIRECTION('',(0.347252294273348,-2.06231346832741E-18,0.937771744147741));
#91=DIRECTION('',(0.974371705316421,-4.98769738992516E-6,-0.224943948249097));
#92=DIRECTION('',(0.224943948251895,-5.71747239396653E-21,0.974371705328541));
#93=DIRECTION('',(-0.940670599491515,8.87641730811842E-8,0.339321121140825));
#94=DIRECTION('',(-0.339321121140827,6.61744490042422E-24,-0.940670599491518));
#95=DIRECTION('',(0.974370064785194,0.,-0.224951054344044));
#96=DIRECTION('',(0.224951054344044,0.,0.974370064785194));
#97=DIRECTION('',(0.974370064785194,0.,-0.224951054344044));
#98=DIRECTION('',(0.224951054344044,0.,0.974370064785194));
#99=DIRECTION('',(0.974370064785194,-7.36715398630146E-17,-0.224951054344044));
#100=DIRECTION('',(0.224951054344044,0.,0.974370064785194));
#101=CARTESIAN_POINT('',(0.,0.,0.));
#102=CARTESIAN_POINT('',(10.77258918008,-3.649028491222E-5,-4.201107653598));
#103=CARTESIAN_POINT('',(11.1473493858167,2.9354773820045E-17,-3.18904945445669));
#104=CARTESIAN_POINT('',(11.1473494999576,0.0234375000000002,-3.18904948080819));
#105=CARTESIAN_POINT('',(11.1465790375097,0.07090490553433,-3.19113082984372));
#106=CARTESIAN_POINT('',(11.1429627580497,0.142957149303838,-3.20089779738622));
#107=CARTESIAN_POINT('',(11.1367979741911,0.214827257674967,-3.21754712265923));
#108=CARTESIAN_POINT('',(11.1280683377354,0.285417673874575,-3.24112293910085));
#109=CARTESIAN_POINT('',(11.1168349381346,0.353617511167031,-3.27146025580954));
#110=CARTESIAN_POINT('',(11.103236849252,0.418358600734633,-3.30818348179063));
#111=CARTESIAN_POINT('',(11.0874857953619,0.478670158744768,-3.35072083146361));
#112=CARTESIAN_POINT('',(11.069855027315,0.533727942330032,-3.39833436582277));
#113=CARTESIAN_POINT('',(11.0538632771187,0.574693813189949,-3.44152145142134));
#114=CARTESIAN_POINT('',(11.0404634365902,0.604301889392753,-3.47770879650052));
#115=CARTESIAN_POINT('',(11.0301576807495,0.62488926511416,-3.50554028630896));
#116=CARTESIAN_POINT('',(11.0213850369292,0.640690419785906,-3.52923146406131));
#117=CARTESIAN_POINT('',(11.0142974849178,0.652483784716148,-3.54837191204483));
#118=CARTESIAN_POINT('',(11.0070758743488,0.663862089029827,-3.5678743857714));
#119=CARTESIAN_POINT('',(10.9977924233652,0.67728878353028,-3.59294498926469));
#120=CARTESIAN_POINT('',(10.9824323816912,0.69692978482363,-3.63442581077794));
#121=CARTESIAN_POINT('',(10.9623544934849,0.717783202145731,-3.68864742408613));
#122=CARTESIAN_POINT('',(10.9371443375587,0.736196940935587,-3.75672894166564));
#123=CARTESIAN_POINT('',(10.911158237808,0.747469516568277,-3.82690583141171));
#124=CARTESIAN_POINT('',(10.884774196049,0.751265241715862,-3.89815727620552));
#125=CARTESIAN_POINT('',(10.8583901173194,0.747469516568277,-3.96940871246403));
#126=CARTESIAN_POINT('',(10.8324039077736,0.736196940935587,-4.0395855768619));
#127=CARTESIAN_POINT('',(10.8071935724973,0.717783202145731,-4.10766705303515));
#128=CARTESIAN_POINT('',(10.7871154811782,0.69692978482363,-4.16188861945107));
#129=CARTESIAN_POINT('',(10.7717552482004,0.67728878353028,-4.20336939679836));
#130=CARTESIAN_POINT('',(10.7624716664405,0.663862089029827,-4.22843997009956));
#131=CARTESIAN_POINT('',(10.7552499450465,0.652483784716148,-4.24794241824018));
#132=CARTESIAN_POINT('',(10.7481622781675,0.640690419785906,-4.26708283970442));
#133=CARTESIAN_POINT('',(10.7393894804437,0.62488926511416,-4.29077398192532));
#134=CARTESIAN_POINT('',(10.7290835240815,0.604301889392753,-4.31860542543974));
#135=CARTESIAN_POINT('',(10.7156833951696,0.574693813189948,-4.35479270394038));
#136=CARTESIAN_POINT('',(10.6996912459649,0.533727942330031,-4.39797969742059));
#137=CARTESIAN_POINT('',(10.6820599416539,0.478670158744767,-4.44559310797344));
#138=CARTESIAN_POINT('',(10.666308300328,0.418358600734633,-4.48813032202616));
#139=CARTESIAN_POINT('',(10.6527095808657,0.353617511167031,-4.52485340242647));
#140=CARTESIAN_POINT('',(10.641475516997,0.285417673874575,-4.55519056577684));
#141=CARTESIAN_POINT('',(10.6327451929891,0.214827257674966,-4.57876622348452));
#142=CARTESIAN_POINT('',(10.6265797091141,0.142957149303837,-4.59541538714601));
#143=CARTESIAN_POINT('',(10.6229627278637,0.0709049055343298,-4.60518219266742));
#144=CARTESIAN_POINT('',(10.6221918030823,0.0234374999999997,-4.60726343496484));
#145=CARTESIAN_POINT('',(10.6221916889414,-3.62828257022274E-16,-4.60726340861335));
#146=CARTESIAN_POINT('',(10.6221916889408,-2.27334995347374E-16,-4.60726340861481));
#147=CARTESIAN_POINT('',(11.1473493858162,1.46739987782335E-17,-3.18904945445809));
#148=CARTESIAN_POINT('',(10.6221916889414,-3.62828257022274E-16,-4.60726340861335));
#149=CARTESIAN_POINT('',(10.6221915813283,-0.0220970869120799,-4.60726338376891));
#150=CARTESIAN_POINT('',(10.6228759022096,-0.0671047531610612,-4.60541469934754));
#151=CARTESIAN_POINT('',(10.6261680673873,-0.136332704107839,-4.59652305853972));
#152=CARTESIAN_POINT('',(10.6318999169777,-0.206398166262237,-4.58104291912046));
#153=CARTESIAN_POINT('',(10.6401912708908,-0.276286597647377,-4.55865071606649));
#154=CARTESIAN_POINT('',(10.6510937086169,-0.344881636176682,-4.52920717238808));
#155=CARTESIAN_POINT('',(10.6645795038585,-0.411012526397911,-4.49278718101637));
#156=CARTESIAN_POINT('',(10.6805356031949,-0.473512148464814,-4.44969606488586));
#157=CARTESIAN_POINT('',(10.698763938776,-0.531280448539372,-4.40046873158259));
#158=CARTESIAN_POINT('',(10.7189886637371,-0.583346572717162,-4.34585013286847));
#159=CARTESIAN_POINT('',(10.7408698795179,-0.628922604678774,-4.28675819261877));
#160=CARTESIAN_POINT('',(10.7640224582817,-0.667442809051672,-4.22423297540234));
#161=CARTESIAN_POINT('',(10.7880377728124,-0.698584189848427,-4.1593780035421));
#162=CARTESIAN_POINT('',(10.8125059886704,-0.722267786335557,-4.0933000560425));
#163=CARTESIAN_POINT('',(10.8329477185462,-0.735911278265083,-4.03809597350322));
#164=CARTESIAN_POINT('',(10.8491548001455,-0.743343220793034,-3.99432785368779));
#165=CARTESIAN_POINT('',(10.8611983841316,-0.747235573937895,-3.96180351261765));
#166=CARTESIAN_POINT('',(10.871107907539,-0.749132239167438,-3.93504233463489));
#167=CARTESIAN_POINT('',(10.878949267595,-0.749877919798792,-3.91386634900691));
#168=CARTESIAN_POINT('',(10.8847668845736,-0.750061040100606,-3.89815558821843));
#169=CARTESIAN_POINT('',(10.8905845033358,-0.749877919798792,-3.88244482784173));
#170=CARTESIAN_POINT('',(10.8984258706547,-0.749132239167438,-3.86126884389053));
#171=CARTESIAN_POINT('',(10.9083354125357,-0.747235573937895,-3.83450767017273));
#172=CARTESIAN_POINT('',(10.9203790344334,-0.743343220793034,-3.80198333785517));
#173=CARTESIAN_POINT('',(10.93658618842,-0.735911278265083,-3.75821523475166));
#174=CARTESIAN_POINT('',(10.9570280511837,-0.722267786335558,-3.70301118289197));
#175=CARTESIAN_POINT('',(10.9814964977205,-0.698584189848428,-3.63693328864875));
#176=CARTESIAN_POINT('',(11.0055121155689,-0.667442809051672,-3.57207838681493));
#177=CARTESIAN_POINT('',(11.0286650695203,-0.628922604678775,-3.5095532562174));
#178=CARTESIAN_POINT('',(11.0505467292127,-0.583346572717163,-3.45046141845275));
#179=CARTESIAN_POINT('',(11.0707719612989,-0.531280448539373,-3.3958429368177));
#180=CARTESIAN_POINT('',(11.0890008595446,-0.473512148464814,-3.34661573341577));
#181=CARTESIAN_POINT('',(11.1049575676286,-0.411012526397912,-3.30352475782574));
#182=CARTESIAN_POINT('',(11.1184440069865,-0.344881636176682,-3.26710491515999));
#183=CARTESIAN_POINT('',(11.1293471128298,-0.276286597647377,-3.23766152572859));
#184=CARTESIAN_POINT('',(11.1376391474577,-0.206398166262237,-3.21526947983002));
#185=CARTESIAN_POINT('',(11.1433716794872,-0.136332704107838,-3.19978949796425));
#186=CARTESIAN_POINT('',(11.1466645189467,-0.0671047531610607,-3.19089801282664));
#187=CARTESIAN_POINT('',(11.1473492782036,-0.0220970869120795,-3.18904942961226));
#188=CARTESIAN_POINT('',(11.1473493858167,2.9354773820045E-17,-3.18904945445669));
#189=CARTESIAN_POINT('',(10.8426100222156,-3.66208498212366E-5,-4.0120129569185));
#190=CARTESIAN_POINT('',(10.8426099396271,-0.0168365035298708,-4.01201294011727));
#191=CARTESIAN_POINT('',(10.8411191741632,-0.0504519399778609,-4.01603834501033));
#192=CARTESIAN_POINT('',(10.8345490753558,-0.0976874278547689,-4.03378054270052));
#193=CARTESIAN_POINT('',(10.8240651508898,-0.138736554464156,-4.06209230563998));
#194=CARTESIAN_POINT('',(10.810331262787,-0.171016754351135,-4.09918087895442));
#195=CARTESIAN_POINT('',(10.794212365744,-0.192498318325879,-4.14271043930763));
#196=CARTESIAN_POINT('',(10.7767229902341,-0.201819977361945,-4.18994121714658));
#197=CARTESIAN_POINT('',(10.7589797661814,-0.198390236436402,-4.23785770738628));
#198=CARTESIAN_POINT('',(10.7420996848066,-0.182440466858074,-4.28344341749499));
#199=CARTESIAN_POINT('',(10.7271426748007,-0.15497372255296,-4.32383594406731));
#200=CARTESIAN_POINT('',(10.7150544457984,-0.117721612641307,-4.35648132742427));
#201=CARTESIAN_POINT('',(10.706598688219,-0.0730337904226907,-4.37931715082668));
#202=CARTESIAN_POINT('',(10.702310661766,-0.0237326705935276,-4.39089787906583));
#203=CARTESIAN_POINT('',(10.7024620063836,0.0270674535271057,-4.39048989077434));
#204=CARTESIAN_POINT('',(10.7070434463282,0.0761555531094226,-4.37811818970917));
#205=CARTESIAN_POINT('',(10.7157649538915,0.120428226737391,-4.35456596552679));
#206=CARTESIAN_POINT('',(10.7239715357484,0.144869349328839,-4.33240404019385));
#207=CARTESIAN_POINT('',(10.7285431766762,0.155435725426311,-4.3200582519138));
#208=CARTESIAN_POINT('',(10.7285442465191,0.155435725420635,-4.32005864807139));
#209=CARTESIAN_POINT('',(10.8426046121368,-3.66208212216961E-5,-4.01201095359265));
#210=CARTESIAN_POINT('',(10.7285431766762,0.155435725426311,-4.3200582519138));
#211=CARTESIAN_POINT('',(10.7336484025141,0.167235369605608,-4.3062715091856));
#212=CARTESIAN_POINT('',(10.7450280888901,0.186702931053373,-4.27554038945379));
#213=CARTESIAN_POINT('',(10.764263963494,0.201218342159746,-4.22359317984145));
#214=CARTESIAN_POINT('',(10.7841521894017,0.199911270288087,-4.16988403785823));
#215=CARTESIAN_POINT('',(10.803138462835,0.182875818100287,-4.11861043795008));
#216=CARTESIAN_POINT('',(10.8197195885825,0.151451296275516,-4.07383185116445));
#217=CARTESIAN_POINT('',(10.8325934337252,0.108112773929028,-4.03906478624329));
#218=CARTESIAN_POINT('',(10.8407491412081,0.0562549081939516,-4.01703916038972));
#219=CARTESIAN_POINT('',(10.8426101144439,0.0187241123052147,-4.01201297568046));
#220=CARTESIAN_POINT('',(10.8426100222156,-3.66208498212366E-5,-4.0120129569185));
#221=CARTESIAN_POINT('',(5.218364519447,-8.061270597667E-6,-2.918855742331));
#222=CARTESIAN_POINT('',(10.6267978258022,-0.00892130216406543,-3.96232261499711));
#223=CARTESIAN_POINT('',(10.6268645983499,-3.55163968525024E-5,-3.96213750956209));
#224=CARTESIAN_POINT('',(10.6267978273502,0.00885026960400553,-3.9623226153545));
#225=CARTESIAN_POINT('',(10.6265212896352,0.0209400881663038,-3.96308924010946));
#226=CARTESIAN_POINT('',(10.6258071590521,0.036318434066833,-3.96506896658938));
#227=CARTESIAN_POINT('',(10.6243148329892,0.0550044214746567,-3.96920601796476));
#228=CARTESIAN_POINT('',(10.6214380807695,0.0798527493776121,-3.97718099586059));
#229=CARTESIAN_POINT('',(10.6161336479797,0.110054657501322,-3.99188602405465));
#230=CARTESIAN_POINT('',(10.6071722844319,0.14240772512078,-4.01672884569864));
#231=CARTESIAN_POINT('',(10.5961156114958,0.168629691454158,-4.04738031075288));
#232=CARTESIAN_POINT('',(10.5857940955098,0.184151072965969,-4.0759937609717));
#233=CARTESIAN_POINT('',(10.5773021667569,0.192568788638106,-4.0995352028693));
#234=CARTESIAN_POINT('',(10.5709162204437,0.196935515331213,-4.11723841071629));
#235=CARTESIAN_POINT('',(10.5656606619679,0.199025153345488,-4.13180794152215));
#236=CARTESIAN_POINT('',(10.5615289593412,0.19983434352955,-4.1432619036143));
#237=CARTESIAN_POINT('',(10.5584922366164,0.200029730421446,-4.15168034745829));
#238=CARTESIAN_POINT('',(10.5554555138575,0.199834354155527,-4.16009879129441));
#239=CARTESIAN_POINT('',(10.5513238110898,0.199025178428952,-4.17155275335402));
#240=CARTESIAN_POINT('',(10.54606825225,0.196935558804715,-4.18612228407583));
#241=CARTESIAN_POINT('',(10.539682305176,0.192568854457054,-4.20382549174719));
#242=CARTESIAN_POINT('',(10.5311903749566,0.184151168499533,-4.22736693330624));
#243=CARTESIAN_POINT('',(10.5208688562665,0.168629823104357,-4.25598038290079));
#244=CARTESIAN_POINT('',(10.5098121787621,0.14240789546005,-4.28663184690039));
#245=CARTESIAN_POINT('',(10.5008508095778,0.110054859197842,-4.31147466724314));
#246=CARTESIAN_POINT('',(10.4955463715263,0.079852969635198,-4.32617969422249));
#247=CARTESIAN_POINT('',(10.4926696149777,0.0550046517984652,-4.33415467111892));
#248=CARTESIAN_POINT('',(10.4911772856593,0.0363186696125341,-4.33829172174276));
#249=CARTESIAN_POINT('',(10.4904631523971,0.0209403262108665,-4.34027144760416));
#250=CARTESIAN_POINT('',(10.4901866125758,0.00885050861622148,-4.34103807187288));
#251=CARTESIAN_POINT('',(10.4901198400281,-3.52771509912511E-5,-4.3412231773079));
#252=CARTESIAN_POINT('',(10.4901866110277,-0.00892106315184948,-4.34103807151549));
#253=CARTESIAN_POINT('',(10.4904631487428,-0.0210108817141477,-4.34027144676052));
#254=CARTESIAN_POINT('',(10.4911772793258,-0.0363892276146769,-4.33829172028061));
#255=CARTESIAN_POINT('',(10.4926696053888,-0.0550752150225006,-4.33415466890523));
#256=CARTESIAN_POINT('',(10.4955463576084,-0.0799235429254559,-4.3261796910094));
#257=CARTESIAN_POINT('',(10.5008507903982,-0.110125451049166,-4.31147466281533));
#258=CARTESIAN_POINT('',(10.509812153946,-0.142478518668624,-4.28663184117134));
#259=CARTESIAN_POINT('',(10.5208688268822,-0.168700485002002,-4.2559803761171));
#260=CARTESIAN_POINT('',(10.5311903428682,-0.184221866513813,-4.22736692589829));
#261=CARTESIAN_POINT('',(10.539682271621,-0.19263958218595,-4.20382548400068));
#262=CARTESIAN_POINT('',(10.5460682179343,-0.197006308879057,-4.18612227615369));
#263=CARTESIAN_POINT('',(10.5513237764101,-0.199095946893333,-4.17155274534783));
#264=CARTESIAN_POINT('',(10.5554554790368,-0.199905137077394,-4.16009878325568));
#265=CARTESIAN_POINT('',(10.5584922017616,-0.20010052396929,-4.1516803394117));
#266=CARTESIAN_POINT('',(10.5615289245205,-0.199905147703371,-4.14326189557557));
#267=CARTESIAN_POINT('',(10.5656606272882,-0.199095971976797,-4.13180793351597));
#268=CARTESIAN_POINT('',(10.570916186128,-0.197006352352559,-4.11723840279415));
#269=CARTESIAN_POINT('',(10.577302133202,-0.192639648004898,-4.09953519512279));
#270=CARTESIAN_POINT('',(10.5857940634213,-0.184221962047377,-4.07599375356375));
#271=CARTESIAN_POINT('',(10.5961155821114,-0.168700616652202,-4.0473803039692));
#272=CARTESIAN_POINT('',(10.6071722596159,-0.142478689007895,-4.01672883996959));
#273=CARTESIAN_POINT('',(10.6161336288001,-0.110125652745687,-3.99188601962685));
#274=CARTESIAN_POINT('',(10.6214380668516,-0.0799237631830421,-3.97718099264749));
#275=CARTESIAN_POINT('',(10.6243148234003,-0.0550754453463092,-3.96920601575106));
#276=CARTESIAN_POINT('',(10.6258071527187,-0.0363894631603781,-3.96506896512723));
#277=CARTESIAN_POINT('',(10.6265212859809,-0.0210111197587104,-3.96308923926583));
#278=CARTESIAN_POINT('',(10.6267978258022,-0.00892130216406543,-3.96232261499711));
#279=CARTESIAN_POINT('',(10.6268645983499,-3.55163968525024E-5,-3.96213750956209));
#280=CARTESIAN_POINT('',(10.6267978273502,0.00885026960400553,-3.9623226153545));
#281=CARTESIAN_POINT('',(10.626842341092,-3.55163579116448E-5,-3.96219921143333));
#282=CARTESIAN_POINT('',(10.667986381866,-7.065092995404E-5,-3.848139145342));
#283=CARTESIAN_POINT('',(-16.17070089209,0.,2.348091317438));
#284=CARTESIAN_POINT('',(20.6325024061013,0.,-6.14859765564895));
#285=CARTESIAN_POINT('',(20.8012156968594,0.,-5.41782010706005));
#286=CARTESIAN_POINT('',(20.632502406103,1.033682599678E-16,-6.148597655644));
#287=MECHANICAL_DESIGN_GEOMETRIC_PRESENTATION_REPRESENTATION('',(#69),#288);
#288=(
GEOMETRIC_REPRESENTATION_CONTEXT(3)
GLOBAL_UNCERTAINTY_ASSIGNED_CONTEXT((#289))
GLOBAL_UNIT_ASSIGNED_CONTEXT((#292,#291,#290))
REPRESENTATION_CONTEXT('Open CASCADE STEP translator 7.5 1.1',
'TOP_LEVEL_ASSEMBLY_PART')
);
#289=UNCERTAINTY_MEASURE_WITH_UNIT(LENGTH_MEASURE(2.E-5),#292,
'DISTANCE_ACCURACY_VALUE','Maximum Tolerance applied to model');
#290=(
NAMED_UNIT(*)
SI_UNIT($,.STERADIAN.)
SOLID_ANGLE_UNIT()
);
#291=(
NAMED_UNIT(*)
PLANE_ANGLE_UNIT()
SI_UNIT($,.RADIAN.)
);
#292=(
LENGTH_UNIT()
NAMED_UNIT(*)
SI_UNIT($,.METRE.)
);
#293=PRODUCT_DEFINITION_SHAPE('','',#294);
#294=PRODUCT_DEFINITION('','',#296,#295);
#295=PRODUCT_DEFINITION_CONTEXT('',#302,'design');
#296=PRODUCT_DEFINITION_FORMATION_WITH_SPECIFIED_SOURCE('','',#298,
 .NOT_KNOWN.);
#297=PRODUCT_RELATED_PRODUCT_CATEGORY('','',(#298));
#298=PRODUCT('Open CASCADE STEP translator 7.5 1.1',
'Open CASCADE STEP translator 7.5 1.1',
'Open CASCADE STEP translator 7.5 1.1',(#300));
#299=PRODUCT_CATEGORY('','');
#300=PRODUCT_CONTEXT('',#302,'mechanical');
#301=APPLICATION_PROTOCOL_DEFINITION('international standard',
'ap242_managed_model_based_3d_engineering',2020,#302);
#302=APPLICATION_CONTEXT('managed model based 3d engineering');
ENDSEC;
END-ISO-10303-21;
