ISO-10303-21;
HEADER;
/* Generated by software containing ST-Developer
 * from STEP Tools, Inc. (www.steptools.com) 
 */
/* OPTION: using custom renumber hook */

FILE_DESCRIPTION(
/* description */ ('STEP AP242 Edition 2',
'CAx-IF Rec.Pracs.---Representation and Presentation of Product Manufa
cturing Information (PMI)---4.0---2014-10-13',
'CAx-IF Rec.Pracs.---3D Tessellated Geometry---0.4---2014-09-14','2;1',
'CAx-IF Rec.Pracs.---User Defined Attributes---1.5---2016-08-15'),
/* implementation_level */ '2;1');

FILE_NAME(
/* name */ 'Eye - Open CASCADE STEP translator 7.5 1.1',
/* time_stamp */ '2026-08-05T23:44:29Z',
/* author */ (''),
/* organization */ (''),
/* preprocessor_version */ 'ST-DEVELOPER v20',
/* originating_system */ 'ONSHAPE BY PTC INC, 1.218',
/* authorisation */ '  ');

FILE_SCHEMA (('AP242_MANAGED_MODEL_BASED_3D_ENGINEERING_MIM_LF { 1 0 10303 442 3 1 4 }'));
ENDSEC;

DATA;
#10=SHAPE_REPRESENTATION_RELATIONSHIP('','',#110,#11);
#11=MANIFOLD_SURFACE_SHAPE_REPRESENTATION('',(#108),#918);
#12=(
BOUNDED_SURFACE()
B_SPLINE_SURFACE(3,3,((#640,#641,#642,#643),(#644,#645,#646,#647),(#648,
#649,#650,#651),(#652,#653,#654,#655),(#656,#657,#658,#659),(#660,#661,
#662,#663),(#664,#665,#666,#667),(#668,#669,#670,#671),(#672,#673,#674,
#675),(#676,#677,#678,#679),(#680,#681,#682,#683),(#684,#685,#686,#687),
(#688,#689,#690,#691),(#692,#693,#694,#695),(#696,#697,#698,#699),(#700,
#701,#702,#703),(#704,#705,#706,#707),(#708,#709,#710,#711),(#712,#713,
#714,#715),(#716,#717,#718,#719),(#720,#721,#722,#723),(#724,#725,#726,
#727)),.SURF_OF_REVOLUTION.,.F.,.F.,.F.)
B_SPLINE_SURFACE_WITH_KNOTS((4,1,1,1,1,1,1,1,1,1,1,1,1,1,1,1,1,1,1,4),(4,
4),(0.,0.0299995765437347,0.0599991530874693,0.0749989413593366,0.0899987296312039,
0.104998517903071,0.119998306174939,0.134998094446806,0.149997882718673,
0.164997670990541,0.179997459262408,0.194997247534275,0.209997035806143,
0.217496929942076,0.22499682407801,0.228746771145977,0.232496718213944,
0.23624666528191,0.238121638815894,0.239996612349877),(0.,1.),
 .UNSPECIFIED.)
GEOMETRIC_REPRESENTATION_ITEM()
RATIONAL_B_SPLINE_SURFACE(((1.,0.333333333333532,0.333333333333532,1.),
(1.,0.333333333333532,0.333333333333532,1.),(1.,0.333333333333532,0.333333333333532,
1.),(1.,0.333333333333532,0.333333333333532,1.),(1.,0.333333333333532,0.333333333333532,
1.),(1.,0.333333333333532,0.333333333333532,1.),(1.,0.333333333333532,0.333333333333532,
1.),(1.,0.333333333333532,0.333333333333532,1.),(1.,0.333333333333532,0.333333333333532,
1.),(1.,0.333333333333532,0.333333333333532,1.),(1.,0.333333333333532,0.333333333333532,
1.),(1.,0.333333333333532,0.333333333333532,1.),(1.,0.333333333333532,0.333333333333532,
1.),(1.,0.333333333333532,0.333333333333532,1.),(1.,0.333333333333532,0.333333333333532,
1.),(1.,0.333333333333532,0.333333333333532,1.),(1.,0.333333333333532,0.333333333333532,
1.),(1.,0.333333333333532,0.333333333333532,1.),(1.,0.333333333333532,0.333333333333532,
1.),(1.,0.333333333333532,0.333333333333532,1.),(1.,0.333333333333532,0.333333333333532,
1.),(1.,0.333333333333532,0.333333333333532,1.)))
REPRESENTATION_ITEM('')
SURFACE()
);
#13=(
BOUNDED_SURFACE()
B_SPLINE_SURFACE(3,3,((#793,#794,#795,#796),(#797,#798,#799,#800),(#801,
#802,#803,#804),(#805,#806,#807,#808),(#809,#810,#811,#812),(#813,#814,
#815,#816),(#817,#818,#819,#820),(#821,#822,#823,#824),(#825,#826,#827,
#828),(#829,#830,#831,#832),(#833,#834,#835,#836),(#837,#838,#839,#840),
(#841,#842,#843,#844),(#845,#846,#847,#848),(#849,#850,#851,#852),(#853,
#854,#855,#856),(#857,#858,#859,#860),(#861,#862,#863,#864),(#865,#866,
#867,#868),(#869,#870,#871,#872),(#873,#874,#875,#876),(#877,#878,#879,
#880)),.SURF_OF_REVOLUTION.,.F.,.F.,.F.)
B_SPLINE_SURFACE_WITH_KNOTS((4,1,1,1,1,1,1,1,1,1,1,1,1,1,1,1,1,1,1,4),(4,
4),(0.,0.0299995765437269,0.0599991530874537,0.0749989413593171,0.0899987296311806,
0.104998517903044,0.119998306174907,0.134998094446771,0.149997882718634,
0.164997670990498,0.179997459262361,0.194997247534225,0.209997035806088,
0.21749692994202,0.224996824077951,0.228746771145917,0.232496718213883,
0.236246665281849,0.238121638815832,0.239996612349815),(0.,1.),
 .UNSPECIFIED.)
GEOMETRIC_REPRESENTATION_ITEM()
RATIONAL_B_SPLINE_SURFACE(((1.,0.333333333333403,0.333333333333403,1.),
(1.,0.333333333333403,0.333333333333403,1.),(1.,0.333333333333403,0.333333333333403,
1.),(1.,0.333333333333403,0.333333333333403,1.),(1.,0.333333333333403,0.333333333333403,
1.),(1.,0.333333333333403,0.333333333333403,1.),(1.,0.333333333333403,0.333333333333403,
1.),(1.,0.333333333333403,0.333333333333403,1.),(1.,0.333333333333403,0.333333333333403,
1.),(1.,0.333333333333403,0.333333333333403,1.),(1.,0.333333333333403,0.333333333333403,
1.),(1.,0.333333333333403,0.333333333333403,1.),(1.,0.333333333333403,0.333333333333403,
1.),(1.,0.333333333333403,0.333333333333403,1.),(1.,0.333333333333403,0.333333333333403,
1.),(1.,0.333333333333403,0.333333333333403,1.),(1.,0.333333333333403,0.333333333333403,
1.),(1.,0.333333333333403,0.333333333333403,1.),(1.,0.333333333333403,0.333333333333403,
1.),(1.,0.333333333333403,0.333333333333403,1.),(1.,0.333333333333403,0.333333333333403,
1.),(1.,0.333333333333403,0.333333333333403,1.)))
REPRESENTATION_ITEM('')
SURFACE()
);
#14=SPHERICAL_SURFACE('',#115,11.);
#15=SPHERICAL_SURFACE('',#116,10.6);
#16=CYLINDRICAL_SURFACE('',#114,1.9);
#17=ORIENTED_EDGE('',*,*,#39,.F.);
#18=ORIENTED_EDGE('',*,*,#40,.F.);
#19=ORIENTED_EDGE('',*,*,#41,.T.);
#20=ORIENTED_EDGE('',*,*,#42,.T.);
#21=ORIENTED_EDGE('',*,*,#39,.T.);
#22=ORIENTED_EDGE('',*,*,#40,.T.);
#23=ORIENTED_EDGE('',*,*,#41,.F.);
#24=ORIENTED_EDGE('',*,*,#42,.F.);
#25=ORIENTED_EDGE('',*,*,#43,.T.);
#26=ORIENTED_EDGE('',*,*,#44,.F.);
#27=ORIENTED_EDGE('',*,*,#45,.F.);
#28=ORIENTED_EDGE('',*,*,#43,.F.);
#29=ORIENTED_EDGE('',*,*,#45,.T.);
#30=ORIENTED_EDGE('',*,*,#46,.T.);
#31=ORIENTED_EDGE('',*,*,#47,.F.);
#32=ORIENTED_EDGE('',*,*,#48,.F.);
#33=ORIENTED_EDGE('',*,*,#46,.F.);
#34=ORIENTED_EDGE('',*,*,#44,.T.);
#35=ORIENTED_EDGE('',*,*,#48,.T.);
#36=ORIENTED_EDGE('',*,*,#49,.F.);
#37=ORIENTED_EDGE('',*,*,#47,.T.);
#38=ORIENTED_EDGE('',*,*,#49,.T.);
#39=EDGE_CURVE('',#50,#51,#59,.F.);
#40=EDGE_CURVE('',#51,#50,#60,.F.);
#41=EDGE_CURVE('',#52,#53,#61,.T.);
#42=EDGE_CURVE('',#53,#52,#62,.T.);
#43=EDGE_CURVE('',#54,#54,#63,.T.);
#44=EDGE_CURVE('',#55,#56,#64,.F.);
#45=EDGE_CURVE('',#56,#55,#65,.F.);
#46=EDGE_CURVE('',#55,#57,#66,.T.);
#47=EDGE_CURVE('',#58,#57,#67,.T.);
#48=EDGE_CURVE('',#56,#58,#68,.T.);
#49=EDGE_CURVE('',#57,#58,#69,.T.);
#50=VERTEX_POINT('',#172);
#51=VERTEX_POINT('',#173);
#52=VERTEX_POINT('',#298);
#53=VERTEX_POINT('',#299);
#54=VERTEX_POINT('',#566);
#55=VERTEX_POINT('',#603);
#56=VERTEX_POINT('',#604);
#57=VERTEX_POINT('',#742);
#58=VERTEX_POINT('',#778);
#59=B_SPLINE_CURVE_WITH_KNOTS('',3,(#131,#132,#133,#134,#135,#136,#137,
#138,#139,#140,#141,#142,#143,#144,#145,#146,#147,#148,#149,#150,#151,#152,
#153,#154,#155,#156,#157,#158,#159,#160,#161,#162,#163,#164,#165,#166,#167,
#168,#169,#170,#171),.UNSPECIFIED.,.F.,.F.,(4,1,1,1,1,1,1,1,1,1,1,1,1,1,
1,1,1,1,1,1,1,1,1,1,1,1,1,1,1,1,1,1,1,1,1,1,1,1,4),(179.999957269082,185.624957269082,
191.249957269082,196.874957269082,202.499957269082,208.124957269082,213.749957269082,
219.374957269082,224.999957269082,230.624957269082,236.249957269082,241.874957269082,
247.499957269082,253.124957269082,258.749957269082,261.562457269082,264.374957269082,
267.187457269082,268.593707269082,269.999957269082,271.406207269082,272.812457269082,
275.624957269082,278.437457269082,281.249957269082,286.874957269082,292.499957269082,
298.124957269082,303.749957269082,309.374957269082,314.999957269082,320.624957269082,
326.249957269082,331.874957269082,337.499957269082,343.124957269082,348.749957269082,
354.374957269082,359.999957269082),.UNSPECIFIED.);
#60=B_SPLINE_CURVE_WITH_KNOTS('',3,(#174,#175,#176,#177,#178,#179,#180,
#181,#182,#183,#184,#185,#186,#187,#188,#189,#190,#191,#192,#193,#194,#195,
#196,#197,#198,#199,#200,#201,#202,#203,#204,#205,#206,#207,#208,#209,#210,
#211,#212,#213,#214,#215,#216),.UNSPECIFIED.,.F.,.F.,(4,1,1,1,1,1,1,1,1,
1,1,1,1,1,1,1,1,1,1,1,1,1,1,1,1,1,1,1,1,1,1,1,1,1,1,1,1,1,1,1,4),(359.999957269082,
365.624957269082,371.249957269082,376.874957269082,382.499957269082,388.124957269082,
393.749957269082,399.374957269082,404.999957269082,410.624957269082,413.437457269082,
416.249957269082,419.062457269082,420.468707269082,421.874957269082,424.687457269082,
427.499957269082,433.124957269082,438.749957269082,444.374957269082,449.999957269082,
455.624957269082,461.249957269082,466.874957269082,472.499957269082,475.312457269082,
478.124957269082,479.531207269082,480.937457269082,483.749957269082,486.562457269082,
489.374957269082,494.999957269082,500.624957269082,506.249957269082,511.874957269082,
517.499957269082,523.124957269082,528.749957269082,534.374957269082,539.999957269082),
 .UNSPECIFIED.);
#61=B_SPLINE_CURVE_WITH_KNOTS('',3,(#218,#219,#220,#221,#222,#223,#224,
#225,#226,#227,#228,#229,#230,#231,#232,#233,#234,#235,#236,#237,#238,#239,
#240,#241,#242,#243,#244,#245,#246,#247,#248,#249,#250,#251,#252,#253,#254,
#255,#256,#257,#258,#259,#260,#261,#262,#263,#264,#265,#266,#267,#268,#269,
#270,#271,#272,#273,#274,#275,#276,#277,#278,#279,#280,#281,#282,#283,#284,
#285,#286,#287,#288,#289,#290,#291,#292,#293,#294,#295,#296,#297),
 .UNSPECIFIED.,.F.,.F.,(4,1,1,1,1,1,1,1,1,1,1,1,1,1,1,1,1,1,1,1,1,1,1,1,
1,1,1,1,1,1,1,1,1,1,1,1,1,1,1,1,1,1,1,1,1,1,1,1,1,1,1,1,1,1,1,1,1,1,1,1,
1,1,1,1,1,1,1,1,1,1,1,1,1,1,1,1,1,4),(0.005082505681141,0.00526878307601628,
0.00545506047089156,0.0055481991683292,0.00564133786576684,0.00573447656320449,
0.00578104591192331,0.00582761526064213,0.00587418460936095,0.00592075395807977,
0.00601389265551741,0.00610703135295505,0.00615360070167387,0.00620017005039269,
0.00624673939911151,0.00629330874783033,0.00638644744526797,0.00647958614270561,
0.00657272484014325,0.00666586353758089,0.00675900223501853,0.00685214093245617,
0.00694527962989381,0.00703841832733145,0.00713155702476909,0.00722469572220674,
0.00727126507092556,0.00731783441964438,0.0073644037683632,0.00741097311708202,
0.00750411181451966,0.0075972505119573,0.00769038920939494,0.00778352790683258,
0.00787666660427022,0.00796980530170786,0.00801637465042668,0.0080629439991455,
0.00810951334786432,0.00815608269658314,0.00824922139402078,0.00834236009145842,
0.00843549878889606,0.0085286374863337,0.00862177618377134,0.00871491488120898,
0.00880805357864663,0.00890119227608427,0.00899433097352191,0.00908746967095955,
0.00913403901967837,0.00918060836839719,0.00922717771711601,0.00927374706583483,
0.00936688576327247,0.00946002446071011,0.00950659380942893,0.00955316315814775,
0.00959973250686657,0.00964630185558539,0.00973944055302303,0.00983257925046067,
0.00992571794789831,0.010018856645336,0.0101119953427736,0.0102051340402112,
0.0102517033889301,0.0102982727376489,0.0103448420863677,0.0103914114350865,
0.0104845501325242,0.0105776888299618,0.0106242581786806,0.0106708275273994,
0.0107173968761183,0.0107639662248371,0.0108571049222747,0.01104338231715),
 .UNSPECIFIED.);
#62=B_SPLINE_CURVE_WITH_KNOTS('',3,(#300,#301,#302,#303,#304,#305,#306,
#307,#308,#309,#310,#311,#312,#313,#314,#315,#316,#317,#318,#319,#320,#321,
#322,#323,#324,#325,#326,#327,#328,#329,#330,#331,#332,#333,#334,#335,#336,
#337,#338,#339,#340,#341,#342,#343,#344,#345,#346,#347,#348,#349,#350,#351,
#352,#353,#354,#355,#356,#357,#358,#359,#360,#361,#362,#363,#364,#365,#366,
#367,#368,#369,#370,#371,#372,#373,#374,#375,#376,#377,#378,#379,#380,#381),
 .UNSPECIFIED.,.F.,.F.,(4,1,1,1,1,1,1,1,1,1,1,1,1,1,1,1,1,1,1,1,1,1,1,1,
1,1,1,1,1,1,1,1,1,1,1,1,1,1,1,1,1,1,1,1,1,1,1,1,1,1,1,1,1,1,1,1,1,1,1,1,
1,1,1,1,1,1,1,1,1,1,1,1,1,1,1,1,1,1,1,4),(0.01104338231715,0.0112296530156262,
0.0113227883648644,0.0114159237141025,0.0115090590633406,0.0116021944125788,
0.0116953297618169,0.0117418974364359,0.011788465111055,0.0118350327856741,
0.0118816004602931,0.0119747358095312,0.0120678711587694,0.0121144388333884,
0.0121610065080075,0.0122075741826266,0.0122541418572456,0.0123472772064837,
0.0124404125557219,0.0124869802303409,0.01253354790496,0.0125801155795791,
0.0126266832541981,0.0127198186034362,0.0128129539526744,0.0129060893019125,
0.0129992246511506,0.0130923600003887,0.0131854953496269,0.0132320630242459,
0.013278630698865,0.0133251983734841,0.0133717660481031,0.0134649013973412,
0.0135580367465794,0.0136046044211984,0.0136511720958175,0.0136977397704366,
0.0137443074450556,0.0138374427942937,0.0139305781435319,0.01402371349277,
0.0141168488420081,0.0142099841912462,0.0143031195404844,0.0143962548897225,
0.0144893902389606,0.0145825255881987,0.0146756609374369,0.0147222286120559,
0.014768796286675,0.0148153639612941,0.0148619316359131,0.0149550669851512,
0.0150482023343894,0.0151413376836275,0.0152344730328656,0.0153276083821037,
0.0154207437313419,0.0154673114059609,0.01551387908058,0.0155604467551991,
0.0156070144298181,0.0157001497790562,0.0157932851282944,0.0158864204775325,
0.0159795558267706,0.0160726911760087,0.0161658265252469,0.016258961874485,
0.0163520972237231,0.0164452325729613,0.0165383679221994,0.0165849355968184,
0.0166315032714375,0.0166780709460566,0.0167246386206756,0.0168177739699137,
0.0169109093191519,0.01700404466839),.UNSPECIFIED.);
#63=B_SPLINE_CURVE_WITH_KNOTS('',3,(#383,#384,#385,#386,#387,#388,#389,
#390,#391,#392,#393,#394,#395,#396,#397,#398,#399,#400,#401,#402,#403,#404,
#405,#406,#407,#408,#409,#410,#411,#412,#413,#414,#415,#416,#417,#418,#419,
#420,#421,#422,#423,#424,#425,#426,#427,#428,#429,#430,#431,#432,#433,#434,
#435,#436,#437,#438,#439,#440,#441,#442,#443,#444,#445,#446,#447,#448,#449,
#450,#451,#452,#453,#454,#455,#456,#457,#458,#459,#460,#461,#462,#463,#464,
#465,#466,#467,#468,#469,#470,#471,#472,#473,#474,#475,#476,#477,#478,#479,
#480,#481,#482,#483,#484,#485,#486,#487,#488,#489,#490,#491,#492,#493,#494,
#495,#496,#497,#498,#499,#500,#501,#502,#503,#504,#505,#506,#507,#508,#509,
#510,#511,#512,#513,#514,#515,#516,#517,#518,#519,#520,#521,#522,#523,#524,
#525,#526,#527,#528,#529,#530,#531,#532,#533,#534,#535,#536,#537,#538,#539,
#540,#541,#542,#543,#544,#545,#546,#547,#548,#549,#550,#551,#552,#553,#554,
#555,#556,#557,#558,#559,#560,#561,#562,#563,#564,#565),.UNSPECIFIED.,.T.,
 .F.,(1,1,1,1,1,1,1,1,1,1,1,1,1,1,1,1,1,1,1,1,1,1,1,1,1,1,1,1,1,1,1,1,1,
1,1,1,1,1,1,1,1,1,1,1,1,1,1,1,1,1,1,1,1,1,1,1,1,1,1,1,1,1,1,1,1,1,1,1,1,
1,1,1,1,1,1,1,1,1,1,1,1,1,1,1,1,1,1,1,1,1,1,1,1,1,1,1,1,1,1,1,1,1,1,1,1,
1,1,1,1,1,1,1,1,1,1,1,1,1,1,1,1,1,1,1,1,1,1,1,1,1,1,1,1,1,1,1,1,1,1,1,1,
1,1,1,1,1,1,1,1,1,1,1,1,1,1,1,1,1,1,1,1,1,1,1,1,1,1,1,1,1,1,1,1,1,1,1,1,
1,1,1,1,1,1,1,1,1,1),(-0.139753803711113,-0.0931692024740762,-0.0465846012370381,
0.,0.0465846012370377,0.0931692024740754,0.186338404948151,0.279507607422226,
0.372676809896302,0.465846012370377,0.512430613607415,0.559015214844452,
0.60559981608149,0.652184417318528,0.698769018555566,0.745353619792603,
0.838522822266679,0.931692024740754,1.02486122721483,1.1180304296889,1.16461503092594,
1.21119963216298,1.25778423340002,1.28107653401854,1.30436883463706,1.39753803711113,
1.49070723958521,1.67704564453336,1.77021484700743,1.86338404948151,1.88667635010003,
1.90996865071855,1.95655325195558,2.04972245442966,2.14289165690373,2.23606085937781,
2.32923006185189,2.42239926432596,2.51556846680004,2.56215306803707,2.60873766927411,
2.65532227051115,2.70190687174819,2.79507607422226,2.88824527669634,2.98141447917041,
3.07458368164449,3.12116828288153,3.16775288411856,3.2143374853556,3.26092208659264,
3.30750668782968,3.35409128906671,3.44726049154079,3.54042969401487,3.63359889648894,
3.72676809896302,3.77335270020005,3.81993730143709,3.86652190267413,3.91310650391117,
3.95969110514821,4.00627570638524,4.09944490885932,4.19261411133339,4.28578331380747,
4.37895251628154,4.42553711751858,4.47212171875562,4.51870631999266,4.5652909212297,
4.61187552246673,4.65846012370377,4.75162932617785,4.84479852865192,4.937967731126,
5.03113693360007,5.07772153483711,5.12430613607415,5.14759843669267,5.17089073731119,
5.21747533854822,5.26405993978526,5.3106445410223,5.40381374349638,5.49698294597045,
5.59015214844453,5.6833213509186,5.72990595215564,5.77649055339268,5.82307515462971,
5.86965975586675,5.91624435710379,5.96282895834083,6.00941355957787,6.0559981608149,
6.14916736328898,6.24233656576305,6.33550576823713,6.4286749707112,6.47525957194824,
6.52184417318528,6.56842877442232,6.61501337565935,6.66159797689639,6.70818257813343,
6.80135178060751,6.89452098308158,6.98769018555566,7.08085938802973,7.12744398926677,
7.17402859050381,7.22061319174084,7.24390549235936,7.26719779297788,7.36036699545196,
7.45353619792603,7.63987460287419,7.73304380534826,7.82621300782234,7.84950530844085,
7.87279760905937,7.91938221029641,8.01255141277049,8.10572061524456,8.19888981771864,
8.29205902019271,8.38522822266679,8.47839742514086,8.5249820263779,8.57156662761494,
8.61815122885198,8.66473583008901,8.75790503256309,8.85107423503716,8.94424343751124,
9.03741263998532,9.08399724122235,9.13058184245939,9.17716644369643,9.22375104493346,
9.2703356461705,9.31692024740754,9.41008944988162,9.50325865235569,9.59642785482977,
9.68959705730384,9.73618165854088,9.78276625977792,9.82935086101496,9.87593546225199,
9.92252006348903,9.96910466472607,10.0622738672001,10.1554430696742,10.2486122721483,
10.3417814746224,10.3883660758594,10.4349506770964,10.4815352783335,10.5281198795705,
10.5747044808076,10.6212890820446,10.7144582845187,10.8076274869928,10.9007966894668,
10.9939658919409,11.0405504931779,11.087135094415,11.1104273950335,11.133719695652,
11.1803042968891,11.2268888981261,11.2734734993631,11.3666427018372,11.4598119043113,
11.5529811067854,11.6461503092594,11.6927349104965,11.7393195117335,11.7859041129705,
11.8324887142076,11.8790733154446,11.9256579166817,11.9722425179187,12.0188271191557,
12.1119963216298),.UNSPECIFIED.);
#64=B_SPLINE_CURVE_WITH_KNOTS('',3,(#568,#569,#570,#571,#572,#573,#574,
#575,#576,#577,#578,#579,#580,#581,#582,#583,#584,#585,#586,#587,#588,#589,
#590,#591,#592,#593,#594,#595,#596,#597,#598,#599,#600,#601,#602),
 .UNSPECIFIED.,.F.,.F.,(4,1,1,1,1,1,1,1,1,1,1,1,1,1,1,1,1,1,1,1,1,1,1,1,
1,1,1,1,1,1,1,1,4),(270.,275.625,281.25,286.875,292.5,298.125,303.75,309.375,
315.,320.625,326.25,331.875,337.5,343.125,348.75,354.375,360.,365.625,371.25,
376.875,382.5,388.125,393.75,399.375,405.,410.625,416.25,421.875,427.5,
433.125,438.75,444.375,450.),.UNSPECIFIED.);
#65=B_SPLINE_CURVE_WITH_KNOTS('',3,(#605,#606,#607,#608,#609,#610,#611,
#612,#613,#614,#615,#616,#617,#618,#619,#620,#621,#622,#623,#624,#625,#626,
#627,#628,#629,#630,#631,#632,#633,#634,#635,#636,#637,#638,#639),
 .UNSPECIFIED.,.F.,.F.,(4,1,1,1,1,1,1,1,1,1,1,1,1,1,1,1,1,1,1,1,1,1,1,1,
1,1,1,1,1,1,1,1,4),(90.,95.625,101.25,106.875,112.5,118.125,123.75,129.375,
135.,140.625,146.25,151.875,157.5,163.125,168.75,174.375,180.,185.625,191.25,
196.875,202.5,208.125,213.75,219.375,225.,230.625,236.25,241.875,247.5,
253.125,258.75,264.375,270.),.UNSPECIFIED.);
#66=B_SPLINE_CURVE_WITH_KNOTS('',3,(#728,#729,#730,#731,#732,#733,#734,
#735,#736,#737,#738,#739,#740,#741),.UNSPECIFIED.,.F.,.F.,(4,1,1,1,1,1,
1,1,1,1,1,4),(0.,0.125,0.25,0.375,0.4375,0.5,0.5625,0.625,0.6875,0.75,0.875,
1.),.UNSPECIFIED.);
#67=B_SPLINE_CURVE_WITH_KNOTS('',3,(#743,#744,#745,#746,#747,#748,#749,
#750,#751,#752,#753,#754,#755,#756,#757,#758,#759,#760,#761,#762,#763,#764,
#765,#766,#767,#768,#769,#770,#771,#772,#773,#774,#775,#776,#777),
 .UNSPECIFIED.,.F.,.F.,(4,1,1,1,1,1,1,1,1,1,1,1,1,1,1,1,1,1,1,1,1,1,1,1,
1,1,1,1,1,1,1,1,4),(90.,95.625,101.25,106.875,112.5,118.125,123.75,129.375,
135.,140.625,146.25,151.875,157.5,163.125,168.75,174.375,180.,185.625,191.25,
196.875,202.5,208.125,213.75,219.375,225.,230.625,236.25,241.875,247.5,
253.125,258.75,264.375,270.),.UNSPECIFIED.);
#68=B_SPLINE_CURVE_WITH_KNOTS('',3,(#779,#780,#781,#782,#783,#784,#785,
#786,#787,#788,#789,#790,#791,#792),.UNSPECIFIED.,.F.,.F.,(4,1,1,1,1,1,
1,1,1,1,1,4),(0.,0.125,0.25,0.375,0.4375,0.5,0.5625,0.625,0.6875,0.75,0.875,
1.),.UNSPECIFIED.);
#69=B_SPLINE_CURVE_WITH_KNOTS('',3,(#881,#882,#883,#884,#885,#886,#887,
#888,#889,#890,#891,#892,#893,#894,#895,#896,#897,#898,#899,#900,#901,#902,
#903,#904,#905,#906,#907,#908,#909,#910,#911,#912,#913,#914,#915),
 .UNSPECIFIED.,.F.,.F.,(4,1,1,1,1,1,1,1,1,1,1,1,1,1,1,1,1,1,1,1,1,1,1,1,
1,1,1,1,1,1,1,1,4),(270.,275.625,281.25,286.875,292.5,298.125,303.75,309.375,
315.,320.625,326.25,331.875,337.5,343.125,348.75,354.375,360.,365.625,371.25,
376.875,382.5,388.125,393.75,399.375,405.,410.625,416.25,421.875,427.5,
433.125,438.75,444.375,450.),.UNSPECIFIED.);
#70=EDGE_LOOP('',(#17,#18));
#71=EDGE_LOOP('',(#19,#20));
#72=EDGE_LOOP('',(#21,#22));
#73=EDGE_LOOP('',(#23,#24));
#74=EDGE_LOOP('',(#25));
#75=EDGE_LOOP('',(#26,#27));
#76=EDGE_LOOP('',(#28));
#77=EDGE_LOOP('',(#29,#30,#31,#32));
#78=EDGE_LOOP('',(#33,#34,#35,#36));
#79=EDGE_LOOP('',(#37,#38));
#80=FACE_BOUND('',#70,.T.);
#81=FACE_BOUND('',#71,.T.);
#82=FACE_BOUND('',#72,.T.);
#83=FACE_BOUND('',#73,.T.);
#84=FACE_BOUND('',#74,.T.);
#85=FACE_BOUND('',#75,.T.);
#86=FACE_BOUND('',#76,.T.);
#87=FACE_BOUND('',#77,.T.);
#88=FACE_BOUND('',#78,.T.);
#89=FACE_BOUND('',#79,.T.);
#90=PLANE('',#112);
#91=PLANE('',#113);
#92=ADVANCED_FACE('',(#80),#90,.F.);
#93=ADVANCED_FACE('',(#81,#82),#91,.F.);
#94=ADVANCED_FACE('',(#83,#84),#16,.T.);
#95=ADVANCED_FACE('',(#85,#86),#14,.T.);
#96=ADVANCED_FACE('',(#87),#12,.F.);
#97=ADVANCED_FACE('',(#88),#13,.F.);
#98=ADVANCED_FACE('',(#89),#15,.F.);
#99=CLOSED_SHELL('',(#92,#93,#94,#95,#96,#97,#98));
#100=STYLED_ITEM('',(#101),#108);
#101=PRESENTATION_STYLE_ASSIGNMENT((#102));
#102=SURFACE_STYLE_USAGE(.BOTH.,#103);
#103=SURFACE_SIDE_STYLE('',(#104));
#104=SURFACE_STYLE_FILL_AREA(#105);
#105=FILL_AREA_STYLE('',(#106));
#106=FILL_AREA_STYLE_COLOUR('',#107);
#107=COLOUR_RGB('',0.972549019607843,0.529411764705882,0.00392156862745098);
#108=SHELL_BASED_SURFACE_MODEL('Open CASCADE STEP translator 7.5 1.1',(#99));
#109=SHAPE_DEFINITION_REPRESENTATION(#923,#110);
#110=SHAPE_REPRESENTATION('Open CASCADE STEP translator 7.5 1.1',(#111),
#918);
#111=AXIS2_PLACEMENT_3D('',#129,#117,#118);
#112=AXIS2_PLACEMENT_3D('',#130,#119,#120);
#113=AXIS2_PLACEMENT_3D('',#217,#121,#122);
#114=AXIS2_PLACEMENT_3D('',#382,#123,#124);
#115=AXIS2_PLACEMENT_3D('',#567,#125,#126);
#116=AXIS2_PLACEMENT_3D('',#916,#127,#128);
#117=DIRECTION('',(0.,0.,1.));
#118=DIRECTION('',(1.,0.,0.));
#119=DIRECTION('',(-0.940670599491515,8.87641730811842E-8,0.339321121140825));
#120=DIRECTION('',(-0.339321121140827,6.61744490042422E-24,-0.940670599491518));
#121=DIRECTION('',(-0.940670628922824,-1.0655718757078E-7,0.339321039550937));
#122=DIRECTION('',(-0.339321039550939,1.98523347012726E-23,-0.940670628922829));
#123=DIRECTION('',(0.974370064785194,0.,-0.224951054344044));
#124=DIRECTION('',(0.224951054344044,0.,0.974370064785194));
#125=DIRECTION('',(0.,1.,0.));
#126=DIRECTION('',(0.,0.,1.));
#127=DIRECTION('',(0.,1.,0.));
#128=DIRECTION('',(0.,0.,1.));
#129=CARTESIAN_POINT('',(0.,0.,0.));
#130=CARTESIAN_POINT('',(10.667986381866,-7.065092995404E-5,-3.848139145342));
#131=CARTESIAN_POINT('',(10.9243095307786,-3.27971157176865E-16,-3.13755664657441));
#132=CARTESIAN_POINT('',(10.9243095288537,-0.0220970869120799,-3.13755664613003));
#133=CARTESIAN_POINT('',(10.9236413205556,-0.0671047531610612,-3.13940905043432));
#134=CARTESIAN_POINT('',(10.9204273836512,-0.136332704107839,-3.14831875166211));
#135=CARTESIAN_POINT('',(10.9148319782931,-0.206398166262237,-3.16383039171446));
#136=CARTESIAN_POINT('',(10.9067381488345,-0.276286597647377,-3.18626819688198));
#137=CARTESIAN_POINT('',(10.8960955520694,-0.344881636176682,-3.21577172957306));
#138=CARTESIAN_POINT('',(10.8829312583094,-0.411012526397912,-3.2522659454103));
#139=CARTESIAN_POINT('',(10.8673556287469,-0.473512148464813,-3.2954448999093));
#140=CARTESIAN_POINT('',(10.8495620099159,-0.531280448539372,-3.34477259548234));
#141=CARTESIAN_POINT('',(10.8298196706411,-0.583346572717162,-3.3995025617073));
#142=CARTESIAN_POINT('',(10.8084604020433,-0.628922604678774,-3.45871500295905));
#143=CARTESIAN_POINT('',(10.7858601441045,-0.667442809051671,-3.52136773348531));
#144=CARTESIAN_POINT('',(10.7624177742277,-0.698584189848427,-3.58635498004144));
#145=CARTESIAN_POINT('',(10.7385333470489,-0.722267786335557,-3.65256770577746));
#146=CARTESIAN_POINT('',(10.7185793674101,-0.735911278265082,-3.7078843943317));
#147=CARTESIAN_POINT('',(10.7027590115393,-0.743343220793033,-3.75174179681655));
#148=CARTESIAN_POINT('',(10.69100281376,-0.747235573937894,-3.78433248622044));
#149=CARTESIAN_POINT('',(10.6813297595372,-0.749132239167437,-3.81114825741612));
#150=CARTESIAN_POINT('',(10.6736755201092,-0.749877919798791,-3.83236744324503));
#151=CARTESIAN_POINT('',(10.6679967323878,-0.750061040100605,-3.84811025529299));
#152=CARTESIAN_POINT('',(10.6623179446983,-0.749877919798791,-3.86385306734833));
#153=CARTESIAN_POINT('',(10.6546637054002,-0.749132239167437,-3.88507225320722));
#154=CARTESIAN_POINT('',(10.6449906515078,-0.747235573937894,-3.91188802447919));
#155=CARTESIAN_POINT('',(10.6332344544066,-0.743343220793033,-3.94447871403963));
#156=CARTESIAN_POINT('',(10.6174140998306,-0.735911278265082,-3.9883361168234));
#157=CARTESIAN_POINT('',(10.5974601225687,-0.722267786335557,-4.0436528059264));
#158=CARTESIAN_POINT('',(10.573575699516,-0.698584189848427,-4.109865532615));
#159=CARTESIAN_POINT('',(10.5501333350645,-0.667442809051671,-4.17485278042368));
#160=CARTESIAN_POINT('',(10.5275330838366,-0.628922604678774,-4.23750551249926));
#161=CARTESIAN_POINT('',(10.506173823179,-0.583346572717162,-4.29671795558413));
#162=CARTESIAN_POINT('',(10.4864314929749,-0.531280448539372,-4.35144792390324));
#163=CARTESIAN_POINT('',(10.4686378842081,-0.473512148464813,-4.40077562179979));
#164=CARTESIAN_POINT('',(10.453062265534,-0.411012526397912,-4.44395457881258));
#165=CARTESIAN_POINT('',(10.4398979832951,-0.344881636176681,-4.48044879730968));
#166=CARTESIAN_POINT('',(10.4292553984805,-0.276286597647377,-4.50995233275973));
#167=CARTESIAN_POINT('',(10.4211615811977,-0.206398166262237,-4.53239014073823));
#168=CARTESIAN_POINT('',(10.4155661880461,-0.136332704107839,-4.5479017836087));
#169=CARTESIAN_POINT('',(10.4123522632024,-0.067104753161061,-4.55681148762091));
#170=CARTESIAN_POINT('',(10.4116840627453,-0.0220970869120798,-4.55866389373546));
#171=CARTESIAN_POINT('',(10.4116840646701,-1.71669861485924E-16,-4.55866389417984));
#172=CARTESIAN_POINT('',(10.4116840348042,-3.5547499460057E-15,-4.55866388340653));
#173=CARTESIAN_POINT('',(10.9243094392821,-1.06925051630716E-14,-3.13755661356959));
#174=CARTESIAN_POINT('',(10.4116840646701,-1.71669861485924E-16,-4.55866389417985));
#175=CARTESIAN_POINT('',(10.4116840667118,0.0234374999999996,-4.55866389465119));
#176=CARTESIAN_POINT('',(10.4124363728233,0.0709049055343305,-4.55657835389512));
#177=CARTESIAN_POINT('',(10.4159667031006,0.142957149303838,-4.54679154342028));
#178=CARTESIAN_POINT('',(10.4219847200289,0.214827257674965,-4.53010833433155));
#179=CARTESIAN_POINT('',(10.4305063763643,0.285417673874576,-4.50648450189575));
#180=CARTESIAN_POINT('',(10.4414720351003,0.353617511167029,-4.47608537233788));
#181=CARTESIAN_POINT('',(10.4547459360263,0.418358600734632,-4.43928730166964));
#182=CARTESIAN_POINT('',(10.4701214027031,0.478670158744766,-4.39666324085611));
#183=CARTESIAN_POINT('',(10.4873317010794,0.533727942330032,-4.34895263342464));
#184=CARTESIAN_POINT('',(10.5029420264959,0.574693813189947,-4.30567748897709));
#185=CARTESIAN_POINT('',(10.516022239941,0.604301889392752,-4.26941635217131));
#186=CARTESIAN_POINT('',(10.5260821614862,0.624889265114159,-4.24152810704373));
#187=CARTESIAN_POINT('',(10.5346455336398,0.640690419785906,-4.21778861512023));
#188=CARTESIAN_POINT('',(10.5415640071889,0.652483784716148,-4.19860913229795));
#189=CARTESIAN_POINT('',(10.5486133381468,0.663862089029826,-4.17906688468916));
#190=CARTESIAN_POINT('',(10.5576753161959,0.67728878353028,-4.1539451501401));
#191=CARTESIAN_POINT('',(10.5726689047913,0.696929784823629,-4.11237972626744));
#192=CARTESIAN_POINT('',(10.5922677602891,0.717783202145731,-4.05804751954428));
#193=CARTESIAN_POINT('',(10.6168763965545,0.736196940935587,-3.98982713020874));
#194=CARTESIAN_POINT('',(10.6422424251471,0.747469516568277,-3.91950708575601));
#195=CARTESIAN_POINT('',(10.6679968631658,0.751265241715861,-3.84811028548548));
#196=CARTESIAN_POINT('',(10.6937513005232,0.747469516568277,-3.77671348506228));
#197=CARTESIAN_POINT('',(10.719117327152,0.736196940935587,-3.70639344015616));
#198=CARTESIAN_POINT('',(10.7437259602095,0.717783202145732,-3.63817305007999));
#199=CARTESIAN_POINT('',(10.7633248120742,0.69692978482363,-3.58384084251809));
#200=CARTESIAN_POINT('',(10.7783183972478,0.67728878353028,-3.54227541785545));
#201=CARTESIAN_POINT('',(10.7873803729577,0.663862089029827,-3.51715368276634));
#202=CARTESIAN_POINT('',(10.7944297019334,0.652483784716148,-3.49761143469992));
#203=CARTESIAN_POINT('',(10.8013481734278,0.640690419785907,-3.47843195140329));
#204=CARTESIAN_POINT('',(10.8099115428286,0.62488926511416,-3.45469245884425));
#205=CARTESIAN_POINT('',(10.8199714607871,0.604301889392753,-3.42680421288862));
#206=CARTESIAN_POINT('',(10.833051669074,0.574693813189949,-3.39054307489197));
#207=CARTESIAN_POINT('',(10.8486619873536,0.533727942330032,-3.34726792879673));
#208=CARTESIAN_POINT('',(10.865872276138,0.478670158744768,-3.29955731915078));
#209=CARTESIAN_POINT('',(10.8812477323075,0.418358600734633,-3.25693325591145));
#210=CARTESIAN_POINT('',(10.8945216219545,0.353617511167031,-3.22013518263926));
#211=CARTESIAN_POINT('',(10.9054872688089,0.285417673874576,-3.18973605033832));
#212=CARTESIAN_POINT('',(10.9140089128463,0.214827257674966,-3.1661122150633));
#213=CARTESIAN_POINT('',(10.9200269172536,0.142957149303837,-3.14942900308386));
#214=CARTESIAN_POINT('',(10.9235572349782,0.0709049055343299,-3.13964218971102));
#215=CARTESIAN_POINT('',(10.9243095328202,0.0234374999999997,-3.13755664704575));
#216=CARTESIAN_POINT('',(10.9243095307786,-3.27971157176865E-16,-3.13755664657441));
#217=CARTESIAN_POINT('',(10.667945595005,1.581108792343E-5,-3.848251835061));
#218=CARTESIAN_POINT('',(11.3172759529236,1.20889112830796E-10,-2.04816894904658));
#219=CARTESIAN_POINT('',(11.3172759592092,-0.0627084302961207,-2.04816895131393));
#220=CARTESIAN_POINT('',(11.3151586127543,-0.187755888836621,-2.05403872864538));
#221=CARTESIAN_POINT('',(11.307295798915,-0.342077785189306,-2.07583618185723));
#222=CARTESIAN_POINT('',(11.2979220903265,-0.463705370972327,-2.10182214879077));
#223=CARTESIAN_POINT('',(11.2893619223212,-0.553849916122031,-2.12555279702123));
#224=CARTESIAN_POINT('',(11.2809623105528,-0.627946214606005,-2.14883834392048));
#225=CARTESIAN_POINT('',(11.2734907200585,-0.686516434771883,-2.16955121212259));
#226=CARTESIAN_POINT('',(11.2675074460201,-0.730102775774594,-2.18613814349761));
#227=CARTESIAN_POINT('',(11.2611667168723,-0.773197440271843,-2.20371601687453));
#228=CARTESIAN_POINT('',(11.2522649103881,-0.829830042742799,-2.22839374964845));
#229=CARTESIAN_POINT('',(11.2402884445698,-0.899155786934574,-2.26159510089888));
#230=CARTESIAN_POINT('',(11.227191452794,-0.9665179577051,-2.2979027895849));
#231=CARTESIAN_POINT('',(11.2160434710773,-1.01924547010281,-2.32880740017144));
#232=CARTESIAN_POINT('',(11.2073534799073,-1.05820008783851,-2.35289792995702));
#233=CARTESIAN_POINT('',(11.198315326707,-1.09661160702702,-2.37795363932148));
#234=CARTESIAN_POINT('',(11.185793936645,-1.14709067930959,-2.4126656314193));
#235=CARTESIAN_POINT('',(11.1693116979086,-1.20863931776562,-2.45835794822113));
#236=CARTESIAN_POINT('',(11.148323014282,-1.27959941317812,-2.51654309882275));
#237=CARTESIAN_POINT('',(11.1262561762802,-1.34716210124385,-2.57771712330499));
#238=CARTESIAN_POINT('',(11.103212164597,-1.41108677179568,-2.6416000814711));
#239=CARTESIAN_POINT('',(11.0791652281694,-1.47157191444492,-2.70826336084833));
#240=CARTESIAN_POINT('',(11.0541222184151,-1.52854642826153,-2.77768796781629));
#241=CARTESIAN_POINT('',(11.0280708572697,-1.5820591255659,-2.84990793981529));
#242=CARTESIAN_POINT('',(11.0010427821162,-1.63194875621797,-2.92483557119044));
#243=CARTESIAN_POINT('',(10.9732066832178,-1.67788308782305,-3.00200321628213));
#244=CARTESIAN_POINT('',(10.9494448728771,-1.71274519894992,-3.06787605700513));
#245=CARTESIAN_POINT('',(10.9301618707252,-1.73849185872226,-3.12133267887932));
#246=CARTESIAN_POINT('',(10.9155901132231,-1.75669798081429,-3.16172871872451));
#247=CARTESIAN_POINT('',(10.9008835961847,-1.77381978738179,-3.20249834053908));
#248=CARTESIAN_POINT('',(10.8810544657662,-1.79525123998967,-3.25746894563371));
#249=CARTESIAN_POINT('',(10.8559103165202,-1.81937720855649,-3.32717392262859));
#250=CARTESIAN_POINT('',(10.8252514047089,-1.84402221847763,-3.41216700328126));
#251=CARTESIAN_POINT('',(10.7942033029451,-1.8643058482578,-3.4982390005056));
#252=CARTESIAN_POINT('',(10.7628602014251,-1.88017563674568,-3.58512879887862));
#253=CARTESIAN_POINT('',(10.731316203091,-1.89157848719934,-3.67257552486411));
#254=CARTESIAN_POINT('',(10.7049429609057,-1.89731398004038,-3.74568780507272));
#255=CARTESIAN_POINT('',(10.6838351637361,-1.89961635061777,-3.80420314237772));
#256=CARTESIAN_POINT('',(10.6680231719918,-1.90019189320544,-3.84803737175427));
#257=CARTESIAN_POINT('',(10.6521944916584,-1.8996160701982,-3.89191786511423));
#258=CARTESIAN_POINT('',(10.6310310404007,-1.89732640048457,-3.95058748603468));
#259=CARTESIAN_POINT('',(10.6045458724101,-1.8916133219126,-4.02401004496305));
#260=CARTESIAN_POINT('',(10.5728679071241,-1.88023045806354,-4.11182814888921));
#261=CARTESIAN_POINT('',(10.5414506396994,-1.86432089420027,-4.19892354106194));
#262=CARTESIAN_POINT('',(10.5104792394538,-1.84400363711187,-4.2847828924929));
#263=CARTESIAN_POINT('',(10.4799792682363,-1.81938279377498,-4.36933534029194));
#264=CARTESIAN_POINT('',(10.449939788629,-1.7904292084992,-4.4526112053162));
#265=CARTESIAN_POINT('',(10.4203742745049,-1.7571992117636,-4.53457313512012));
#266=CARTESIAN_POINT('',(10.3912350538398,-1.71954045203636,-4.61535328672168));
#267=CARTESIAN_POINT('',(10.3626475033804,-1.6775647942158,-4.69460408894937));
#268=CARTESIAN_POINT('',(10.3394391773709,-1.63924864494059,-4.75894252952957));
#269=CARTESIAN_POINT('',(10.3213231438658,-1.60672060789233,-4.80916404596511));
#270=CARTESIAN_POINT('',(10.3079893392166,-1.58142667982663,-4.84612820158209));
#271=CARTESIAN_POINT('',(10.2949053650505,-1.55524817882828,-4.88239977329004));
#272=CARTESIAN_POINT('',(10.277761021691,-1.51913327580721,-4.92992755530889));
#273=CARTESIAN_POINT('',(10.2569123903714,-1.47172662118961,-4.98772441373539));
#274=CARTESIAN_POINT('',(10.2368387962348,-1.42127541049554,-5.04337270206517));
#275=CARTESIAN_POINT('',(10.2212520144341,-1.37908600224728,-5.08658258779202));
#276=CARTESIAN_POINT('',(10.2097900029576,-1.34650297829396,-5.11835772937092));
#277=CARTESIAN_POINT('',(10.198591850062,-1.31307273864513,-5.14940139815958));
#278=CARTESIAN_POINT('',(10.1840646397707,-1.26751824816179,-5.18967392356819));
#279=CARTESIAN_POINT('',(10.1666507204797,-1.20871414603914,-5.23794902070695));
#280=CARTESIAN_POINT('',(10.1469840038545,-1.13530989643219,-5.29246935018428));
#281=CARTESIAN_POINT('',(10.1285765859079,-1.0591811659541,-5.34349863303551));
#282=CARTESIAN_POINT('',(10.1114599729589,-0.980448397874256,-5.39094952703122));
#283=CARTESIAN_POINT('',(10.0956654193212,-0.899233056320127,-5.43473538855492));
#284=CARTESIAN_POINT('',(10.0836300641911,-0.829577946808413,-5.46809994995162));
#285=CARTESIAN_POINT('',(10.0746953762025,-0.772743206673488,-5.49286880166914));
#286=CARTESIAN_POINT('',(10.0683399785945,-0.729538765902465,-5.51048731206008));
#287=CARTESIAN_POINT('',(10.0623547216663,-0.685925715854967,-5.52707971304744));
#288=CARTESIAN_POINT('',(10.0548936037733,-0.62743811269092,-5.54776351219485));
#289=CARTESIAN_POINT('',(10.0465247174401,-0.55360339429997,-5.57096383514927));
#290=CARTESIAN_POINT('',(10.039426711388,-0.47883739954751,-5.59064100535691));
#291=CARTESIAN_POINT('',(10.0345050566968,-0.418457301078328,-5.60428486777665));
#292=CARTESIAN_POINT('',(10.0311903713792,-0.37291102760833,-5.61347387142135));
#293=CARTESIAN_POINT('',(10.0282531407078,-0.327019970813659,-5.62161648979997));
#294=CARTESIAN_POINT('',(10.0248470005004,-0.265352155011045,-5.6310590209329));
#295=CARTESIAN_POINT('',(10.0202335907854,-0.156488779029781,-5.64384834700488));
#296=CARTESIAN_POINT('',(10.0186241996269,-0.062366749813292,-5.6483098945878));
#297=CARTESIAN_POINT('',(10.0186241933756,1.23345202429533E-10,-5.6483098923328));
#298=CARTESIAN_POINT('',(11.3167423572134,6.04441345306489E-11,-2.04797646908199));
#299=CARTESIAN_POINT('',(10.0180801386329,6.17125639160394E-11,-5.64811363956015));
#300=CARTESIAN_POINT('',(10.0186241933756,1.23345202429533E-10,-5.6483098923328));
#301=CARTESIAN_POINT('',(10.0186241871244,0.0623645080672198,-5.64830989007788));
#302=CARTESIAN_POINT('',(10.0201830835948,0.155484446696024,-5.64398826579045));
#303=CARTESIAN_POINT('',(10.025386510562,0.278785671466748,-5.62956321256379));
#304=CARTESIAN_POINT('',(10.0308471855486,0.37083964295809,-5.61442502251864));
#305=CARTESIAN_POINT('',(10.0378888034226,0.462440572218415,-5.59490412017882));
#306=CARTESIAN_POINT('',(10.0464956407014,0.553157861480676,-5.57104409454255));
#307=CARTESIAN_POINT('',(10.0549355016148,0.62768925868347,-5.54764696825237));
#308=CARTESIAN_POINT('',(10.0624308004611,0.68647950617112,-5.52686837534931));
#309=CARTESIAN_POINT('',(10.0684166819866,0.730088229730091,-5.51027421545419));
#310=CARTESIAN_POINT('',(10.0747721870858,0.773230547829892,-5.49265537995921));
#311=CARTESIAN_POINT('',(10.0837387959518,0.830161013935303,-5.46779800100387));
#312=CARTESIAN_POINT('',(10.0958395642154,0.900057887461318,-5.43425205656124));
#313=CARTESIAN_POINT('',(10.1090645573863,0.967969811009556,-5.3975895204078));
#314=CARTESIAN_POINT('',(10.1202793359701,1.02093008395707,-5.36649973452004));
#315=CARTESIAN_POINT('',(10.1289959234475,1.05990422700533,-5.34233547406542));
#316=CARTESIAN_POINT('',(10.1380156016647,1.09815189971072,-5.31733098136409));
#317=CARTESIAN_POINT('',(10.1504577620013,1.14826430108874,-5.28283863115718));
#318=CARTESIAN_POINT('',(10.1667879791021,1.20919861587879,-5.23756775109617));
#319=CARTESIAN_POINT('',(10.1841655416005,1.26785779738675,-5.18939340589006));
#320=CARTESIAN_POINT('',(10.198696453338,1.31339659068735,-5.14911059067311));
#321=CARTESIAN_POINT('',(10.2099200114355,1.3468839896353,-5.1179964722069));
#322=CARTESIAN_POINT('',(10.2214302799706,1.37958105912069,-5.08608753122164));
#323=CARTESIAN_POINT('',(10.2370991206462,1.42194969850642,-5.04265013415659));
#324=CARTESIAN_POINT('',(10.2572990851903,1.47266033223979,-4.98665148821169));
#325=CARTESIAN_POINT('',(10.2824691238427,1.52981587157402,-4.9168747298625));
#326=CARTESIAN_POINT('',(10.3085267294604,1.58320675122539,-4.84463744688637));
#327=CARTESIAN_POINT('',(10.3354269786787,1.63275782350436,-4.77006417649959));
#328=CARTESIAN_POINT('',(10.3631249181688,1.6783952595205,-4.69327953898498));
#329=CARTESIAN_POINT('',(10.3868359226854,1.71310559686964,-4.62754754294023));
#330=CARTESIAN_POINT('',(10.4061561041011,1.73884012637151,-4.57398785218408));
#331=CARTESIAN_POINT('',(10.4208265520699,1.7571262138684,-4.53331822119337));
#332=CARTESIAN_POINT('',(10.4356302555252,1.77434240280089,-4.49227917777708));
#333=CARTESIAN_POINT('',(10.4554905063994,1.79581319551982,-4.43722230009867));
#334=CARTESIAN_POINT('',(10.4805696798468,1.81990369509095,-4.36769744995106));
#335=CARTESIAN_POINT('',(10.5059779335524,1.84034111115179,-4.29726031996233));
#336=CARTESIAN_POINT('',(10.5265043999586,1.85451014810186,-4.24035655237021));
#337=CARTESIAN_POINT('',(10.5419931306939,1.86405155322393,-4.19741846896108));
#338=CARTESIAN_POINT('',(10.5575984117009,1.87249967994045,-4.15415728356873));
#339=CARTESIAN_POINT('',(10.5785592390723,1.88228291919416,-4.09604937568666));
#340=CARTESIAN_POINT('',(10.6049727745723,1.89172281040963,-4.02282539261245));
#341=CARTESIAN_POINT('',(10.636825665957,1.89853752844933,-3.9345223503442));
#342=CARTESIAN_POINT('',(10.6686194177833,1.90075864700495,-3.84638325704618));
#343=CARTESIAN_POINT('',(10.700237751461,1.8984238337819,-3.75873046187414));
#344=CARTESIAN_POINT('',(10.7317589462915,1.89161138782044,-3.67134695780701));
#345=CARTESIAN_POINT('',(10.763157091567,1.88027767000225,-3.58430457489235));
#346=CARTESIAN_POINT('',(10.7944550925477,1.86442236877584,-3.49753981484083));
#347=CARTESIAN_POINT('',(10.8255847806309,1.84399380048102,-3.41124165564215));
#348=CARTESIAN_POINT('',(10.8563422442971,1.81910263716564,-3.32597538368671));
#349=CARTESIAN_POINT('',(10.8815607041313,1.79477208983774,-3.25606441703541));
#350=CARTESIAN_POINT('',(10.9014198014929,1.7732204417987,-3.20101075065141));
#351=CARTESIAN_POINT('',(10.9161293963625,1.75604588435077,-3.16023260719939));
#352=CARTESIAN_POINT('',(10.9306774269476,1.73781977709764,-3.1199023548931));
#353=CARTESIAN_POINT('',(10.9498998489209,1.71206375270016,-3.06661369042793));
#354=CARTESIAN_POINT('',(10.9735491479868,1.6772260849373,-3.0010527769546));
#355=CARTESIAN_POINT('',(11.0012477974594,1.63133673703925,-2.92426619995859));
#356=CARTESIAN_POINT('',(11.0281815085027,1.58152155690712,-2.84960019742691));
#357=CARTESIAN_POINT('',(11.0542683456822,1.52793545235447,-2.777281911892));
#358=CARTESIAN_POINT('',(11.0794262842679,1.47073271602908,-2.70753873343243));
#359=CARTESIAN_POINT('',(11.0995470166473,1.42018337581905,-2.65175976782396));
#360=CARTESIAN_POINT('',(11.1150993095785,1.37808432079695,-2.60864549260482));
#361=CARTESIAN_POINT('',(11.1264723556707,1.34572270656391,-2.57711698206487));
#362=CARTESIAN_POINT('',(11.1375794884999,1.31249934367094,-2.54632564033838));
#363=CARTESIAN_POINT('',(11.1520635501634,1.26698620470796,-2.50617273215853));
#364=CARTESIAN_POINT('',(11.1695022290681,1.20798100223862,-2.45782899612857));
#365=CARTESIAN_POINT('',(11.1892594945075,1.13413568529208,-2.40305764607445));
#366=CARTESIAN_POINT('',(11.2077355873645,1.05757025357019,-2.35183798179374));
#367=CARTESIAN_POINT('',(11.2248223590109,0.978768861665824,-2.30446981430448));
#368=CARTESIAN_POINT('',(11.2405230641378,0.897874675242887,-2.26094412086107));
#369=CARTESIAN_POINT('',(11.2548388780097,0.81483985942331,-2.22125764339332));
#370=CARTESIAN_POINT('',(11.2677738035738,0.729730910212423,-2.18539928485305));
#371=CARTESIAN_POINT('',(11.2793226124733,0.642348000623754,-2.15338353942849));
#372=CARTESIAN_POINT('',(11.2894215951335,0.553047362114536,-2.12538702359975));
#373=CARTESIAN_POINT('',(11.2965829863312,0.477544178721693,-2.10553413641821));
#374=CARTESIAN_POINT('',(11.3015320505927,0.416754161872402,-2.09181428892515));
#375=CARTESIAN_POINT('',(11.3048435722688,0.37105570906395,-2.08263405562035));
#376=CARTESIAN_POINT('',(11.3077607646123,0.325251901467456,-2.07454698775303));
#377=CARTESIAN_POINT('',(11.3111403440639,0.263947508192704,-2.06517808861239));
#378=CARTESIAN_POINT('',(11.314397448054,0.186921649792166,-2.05614872263129));
#379=CARTESIAN_POINT('',(11.3167508294384,0.0938406846085934,-2.04962467439826));
#380=CARTESIAN_POINT('',(11.3172759497809,0.0313530881915996,-2.04816894791294));
#381=CARTESIAN_POINT('',(11.3172759529236,1.20889112830796E-10,-2.04816894904658));
#382=CARTESIAN_POINT('',(-15.95640562596,0.,2.298617356979));
#383=CARTESIAN_POINT('',(9.50878248428285,-0.0472429384475259,-5.53006033016138));
#384=CARTESIAN_POINT('',(9.50857677271272,1.17354171365316E-5,-5.53061588521511));
#385=CARTESIAN_POINT('',(9.50878248060858,0.0471959967790911,-5.53006034019835));
#386=CARTESIAN_POINT('',(9.50959891067251,0.109795979436113,-5.52785543468469));
#387=CARTESIAN_POINT('',(9.51162551082596,0.187567449123207,-5.52238219553521));
#388=CARTESIAN_POINT('',(9.51564391842657,0.280106986404547,-5.51152920957203));
#389=CARTESIAN_POINT('',(9.52123773550784,0.371873935041817,-5.49642034552535));
#390=CARTESIAN_POINT('',(9.52721223538906,0.447701305236838,-5.48028186809144));
#391=CARTESIAN_POINT('',(9.53278528414549,0.507971669138941,-5.46522652513032));
#392=CARTESIAN_POINT('',(9.53736510320757,0.552981899600557,-5.45285361435148));
#393=CARTESIAN_POINT('',(9.54234566104633,0.597779132571455,-5.4393971935756));
#394=CARTESIAN_POINT('',(9.54774059503931,0.642432055233228,-5.42482019226625));
#395=CARTESIAN_POINT('',(9.55349774035383,0.686503670633132,-5.40926332973531));
#396=CARTESIAN_POINT('',(9.56165046038703,0.744504955200666,-5.38723141974729));
#397=CARTESIAN_POINT('',(9.57272626632866,0.815591429706335,-5.35729645725801));
#398=CARTESIAN_POINT('',(9.58741315119204,0.898662376315643,-5.31759422246973));
#399=CARTESIAN_POINT('',(9.60348684325213,0.979513665585943,-5.27413411201013));
#400=CARTESIAN_POINT('',(9.61803781179448,1.04503834829618,-5.2347822810232));
#401=CARTESIAN_POINT('',(9.63037772153806,1.0963374534806,-5.20140384832125));
#402=CARTESIAN_POINT('',(9.63998492428475,1.13424819696384,-5.1754138733138));
#403=CARTESIAN_POINT('',(9.64828606105724,1.16536395142336,-5.15295420182326));
#404=CARTESIAN_POINT('',(9.65510787834351,1.18997388028448,-5.13449509972184));
#405=CARTESIAN_POINT('',(9.66547221880889,1.22642850935336,-5.10644837656245));
#406=CARTESIAN_POINT('',(9.68152849918755,1.27947141962306,-5.06299138051053));
#407=CARTESIAN_POINT('',(9.71148714694511,1.36916929181087,-4.9818832627584));
#408=CARTESIAN_POINT('',(9.74353910439398,1.45207189277658,-4.89506884488088));
#409=CARTESIAN_POINT('',(9.77767340390138,1.52819288508837,-4.80256712113086));
#410=CARTESIAN_POINT('',(9.79766529551114,1.56844366139671,-4.74837163046674));
#411=CARTESIAN_POINT('',(9.81132426975357,1.59418324033064,-4.71133543536405));
#412=CARTESIAN_POINT('',(9.82052713611538,1.61106376875884,-4.68637967292452));
#413=CARTESIAN_POINT('',(9.83677735252731,1.6396698828533,-4.64230730917648));
#414=CARTESIAN_POINT('',(9.86036824967023,1.67783938521171,-4.57830857175816));
#415=CARTESIAN_POINT('',(9.88927810621408,1.71942446026128,-4.49985070167632));
#416=CARTESIAN_POINT('',(9.91877930303066,1.75683099047127,-4.41975727395578));
#417=CARTESIAN_POINT('',(9.94886851693167,1.7900741401025,-4.33803552018822));
#418=CARTESIAN_POINT('',(9.97955231198653,1.81914140981324,-4.2546657646928));
#419=CARTESIAN_POINT('',(10.0056064711571,1.83983734331569,-4.18384642646166));
#420=CARTESIAN_POINT('',(10.0267817308186,1.85426008874072,-4.12627085670358));
#421=CARTESIAN_POINT('',(10.0426894689331,1.86391096226949,-4.08300873104059));
#422=CARTESIAN_POINT('',(10.0586164772247,1.87240750871576,-4.03968525350997));
#423=CARTESIAN_POINT('',(10.0798802821009,1.88221142834985,-3.98183306108338));
#424=CARTESIAN_POINT('',(10.1065105905703,1.89162916786488,-3.90935784037359));
#425=CARTESIAN_POINT('',(10.1385471870433,1.89843385326093,-3.82213319979581));
#426=CARTESIAN_POINT('',(10.1706638942028,1.90075107346388,-3.73465430265631));
#427=CARTESIAN_POINT('',(10.1974942093098,1.89892455589519,-3.66154418050133));
#428=CARTESIAN_POINT('',(10.2190004200593,1.895180042888,-3.6029235688183));
#429=CARTESIAN_POINT('',(10.2351472194253,1.89122144266129,-3.55890229961373));
#430=CARTESIAN_POINT('',(10.2513278757403,1.8860922698107,-3.51477959070007));
#431=CARTESIAN_POINT('',(10.2673838738045,1.87984239436948,-3.4709877798884));
#432=CARTESIAN_POINT('',(10.283331075957,1.87248186367313,-3.42748383293775));
#433=CARTESIAN_POINT('',(10.3044450655976,1.86120010796308,-3.36987323304701));
#434=CARTESIAN_POINT('',(10.3305627609881,1.84436531683392,-3.29858823064546));
#435=CARTESIAN_POINT('',(10.3614676087264,1.81982789265039,-3.21420396750669));
#436=CARTESIAN_POINT('',(10.3919372173304,1.79095876757713,-3.13097577431942));
#437=CARTESIAN_POINT('',(10.416963859893,1.76327011579698,-3.06258899888925));
#438=CARTESIAN_POINT('',(10.4367641611126,1.73891000110399,-3.00846831590762));
#439=CARTESIAN_POINT('',(10.451501680289,1.71952696127885,-2.96817837024304));
#440=CARTESIAN_POINT('',(10.4661301720962,1.69900820105911,-2.92817908850181));
#441=CARTESIAN_POINT('',(10.4805068699157,1.67755531350272,-2.88886112416378));
#442=CARTESIAN_POINT('',(10.4946556713652,1.65515092624487,-2.85015950190587));
#443=CARTESIAN_POINT('',(10.5132119022734,1.62402956297612,-2.79939318207686));
#444=CARTESIAN_POINT('',(10.5358357512054,1.58279774649107,-2.73748245958105));
#445=CARTESIAN_POINT('',(10.5620766941698,1.52962086227435,-2.66564952183668));
#446=CARTESIAN_POINT('',(10.587411079735,1.4727458836714,-2.59627592901998));
#447=CARTESIAN_POINT('',(10.6077634674427,1.42224631454303,-2.54052737246333));
#448=CARTESIAN_POINT('',(10.6235825432336,1.37995977115707,-2.49718672692827));
#449=CARTESIAN_POINT('',(10.6352155102614,1.34728589727494,-2.46531041573016));
#450=CARTESIAN_POINT('',(10.6466049369653,1.313665478729,-2.43409698254134));
#451=CARTESIAN_POINT('',(10.6576457735166,1.27941375316366,-2.4038346726907));
#452=CARTESIAN_POINT('',(10.6683632095267,1.24447648163063,-2.37445483412156));
#453=CARTESIAN_POINT('',(10.6822177680539,1.1970081050282,-2.33647020403327));
#454=CARTESIAN_POINT('',(10.6987288112553,1.13601359532591,-2.29119365294294));
#455=CARTESIAN_POINT('',(10.7172594918607,1.06018741702461,-2.24036683781719));
#456=CARTESIAN_POINT('',(10.7345081160395,0.981727471072992,-2.19304607800968));
#457=CARTESIAN_POINT('',(10.7478066280652,0.914131021649281,-2.15655480327922));
#458=CARTESIAN_POINT('',(10.7577900081978,0.858711058170491,-2.12915650729683));
#459=CARTESIAN_POINT('',(10.7637555418356,0.823497227004538,-2.11278327899209));
#460=CARTESIAN_POINT('',(10.7683570513156,0.795002836216244,-2.100152999306));
#461=CARTESIAN_POINT('',(10.7728236906706,0.766424261882785,-2.08789240072409));
#462=CARTESIAN_POINT('',(10.7781642083249,0.730492192466491,-2.07323216661963));
#463=CARTESIAN_POINT('',(10.7841855384809,0.687059043177709,-2.05670177733598));
#464=CARTESIAN_POINT('',(10.7917026191106,0.628726047119839,-2.03606362119887));
#465=CARTESIAN_POINT('',(10.800145985784,0.555026186269789,-2.0128799440819));
#466=CARTESIAN_POINT('',(10.8087641009614,0.465339192066738,-1.98921373092898));
#467=CARTESIAN_POINT('',(10.8158674027132,0.374407468266748,-1.96970547103879));
#468=CARTESIAN_POINT('',(10.820515147919,0.297575709027293,-1.95694007642255));
#469=CARTESIAN_POINT('',(10.8234578884181,0.23548927382159,-1.94885728276996));
#470=CARTESIAN_POINT('',(10.8252747709306,0.188554471770752,-1.94386674773398));
#471=CARTESIAN_POINT('',(10.8266884936979,0.141502889391338,-1.93998351795264));
#472=CARTESIAN_POINT('',(10.8276981406857,0.0944016102438202,-1.93721016705993));
#473=CARTESIAN_POINT('',(10.8283045305375,0.0472439220258299,-1.93554448742911));
#474=CARTESIAN_POINT('',(10.8285070576485,-1.01526155041441E-5,-1.93498816714172));
#475=CARTESIAN_POINT('',(10.8283045587539,-0.0471944241275659,-1.9355444100234));
#476=CARTESIAN_POINT('',(10.8275008153073,-0.109794505880763,-1.93775219543322));
#477=CARTESIAN_POINT('',(10.8255056286007,-0.187566580754748,-1.94323267040403));
#478=CARTESIAN_POINT('',(10.8215491464388,-0.280107478727414,-1.95410010609178));
#479=CARTESIAN_POINT('',(10.8160408379602,-0.371876415823739,-1.96922913196126));
#480=CARTESIAN_POINT('',(10.8101567121997,-0.447705948080715,-1.98538913114553));
#481=CARTESIAN_POINT('',(10.8046671082758,-0.50797830331521,-2.00046448801134));
#482=CARTESIAN_POINT('',(10.8001553642607,-0.552990226055962,-2.01285382534681));
#483=CARTESIAN_POINT('',(10.795248285591,-0.59778905473006,-2.02632798376225));
#484=CARTESIAN_POINT('',(10.7899321653068,-0.642444568567737,-2.04092439848132));
#485=CARTESIAN_POINT('',(10.7842580597842,-0.686520945971968,-2.05650267846032));
#486=CARTESIAN_POINT('',(10.7762218132893,-0.744528049285314,-2.07856464371734));
#487=CARTESIAN_POINT('',(10.7653016908286,-0.815622316127015,-2.10854040934794));
#488=CARTESIAN_POINT('',(10.7508162209511,-0.898702803789615,-2.14829633015637));
#489=CARTESIAN_POINT('',(10.7349569491482,-0.979563788568177,-2.1918145871386));
#490=CARTESIAN_POINT('',(10.7205941810903,-1.04509658152837,-2.23121837857164));
#491=CARTESIAN_POINT('',(10.7084097811511,-1.09640200040763,-2.26464024451551));
#492=CARTESIAN_POINT('',(10.6989214017317,-1.13431768609346,-2.2906639248227));
#493=CARTESIAN_POINT('',(10.690721221072,-1.16543664974423,-2.31315179569029));
#494=CARTESIAN_POINT('',(10.6839805955852,-1.19005099131979,-2.33163530531964));
#495=CARTESIAN_POINT('',(10.6737377426105,-1.22651413371448,-2.35972052681014));
#496=CARTESIAN_POINT('',(10.6578651049553,-1.27956782668498,-2.40323544972724));
#497=CARTESIAN_POINT('',(10.6282335497665,-1.36928245475825,-2.48444869907314));
#498=CARTESIAN_POINT('',(10.5965064630583,-1.4521969293126,-2.5713693927074));
#499=CARTESIAN_POINT('',(10.5626878514994,-1.52832496732951,-2.66397627455806));
#500=CARTESIAN_POINT('',(10.5428687714678,-1.5685779239814,-2.71823015081667));
#501=CARTESIAN_POINT('',(10.5293225136626,-1.59431804924543,-2.75530453014032));
#502=CARTESIAN_POINT('',(10.5201939873752,-1.61119902466532,-2.78028601406842));
#503=CARTESIAN_POINT('',(10.5040691143258,-1.63980890483217,-2.8244083029929));
#504=CARTESIAN_POINT('',(10.4806502470943,-1.67797912129618,-2.888472428443));
#505=CARTESIAN_POINT('',(10.4519321867044,-1.71956210102949,-2.96700491277501));
#506=CARTESIAN_POINT('',(10.4226075456397,-1.75696278171885,-3.04716689621404));
#507=CARTESIAN_POINT('',(10.3926783378371,-1.79019691743771,-3.12895099278021));
#508=CARTESIAN_POINT('',(10.3621368354139,-1.81925226676944,-3.2123763627737));
#509=CARTESIAN_POINT('',(10.3361856435625,-1.83993598423937,-3.28323545958188));
#510=CARTESIAN_POINT('',(10.3150824885332,-1.85434803126181,-3.34083974480582));
#511=CARTESIAN_POINT('',(10.2992225208431,-1.86399080829309,-3.38412321421087));
#512=CARTESIAN_POINT('',(10.283337925546,-1.87247859026371,-3.42746514640051));
#513=CARTESIAN_POINT('',(10.2621231474832,-1.88227025205422,-3.48533903306157));
#514=CARTESIAN_POINT('',(10.2355401129057,-1.89167164275717,-3.55783544504926));
#515=CARTESIAN_POINT('',(10.2035375840964,-1.89845557427097,-3.64507608467131));
#516=CARTESIAN_POINT('',(10.1714321108819,-1.90075135808392,-3.73256140501906));
#517=CARTESIAN_POINT('',(10.1445919576865,-1.8989067897855,-3.80566885953338));
#518=CARTESIAN_POINT('',(10.1230662895551,-1.8951479676549,-3.86428238183711));
#519=CARTESIAN_POINT('',(10.1068990121812,-1.89117874130715,-3.9082960570036));
#520=CARTESIAN_POINT('',(10.0906922445622,-1.88603919691917,-3.95240800002501));
#521=CARTESIAN_POINT('',(10.0746046855668,-1.87977938429493,-3.99618631880805));
#522=CARTESIAN_POINT('',(10.0586202670947,-1.87240926516778,-4.03967494253547));
#523=CARTESIAN_POINT('',(10.0374493782821,-1.86111527237816,-4.09726243893656));
#524=CARTESIAN_POINT('',(10.0112471396168,-1.84426626818388,-4.16851381336533));
#525=CARTESIAN_POINT('',(9.98022025896607,-1.81971375723082,-4.25285048368348));
#526=CARTESIAN_POINT('',(9.94960890960055,-1.79083175334603,-4.33602422058819));
#527=CARTESIAN_POINT('',(9.92444842960756,-1.76313436153351,-4.40436029280524));
#528=CARTESIAN_POINT('',(9.90453212817047,-1.73876865263614,-4.45843724731138));
#529=CARTESIAN_POINT('',(9.88970311080702,-1.71938192764333,-4.49869329526972));
#530=CARTESIAN_POINT('',(9.87497933474214,-1.69886091347192,-4.53865587179836));
#531=CARTESIAN_POINT('',(9.86050427634991,-1.67740679856157,-4.57793583376371));
#532=CARTESIAN_POINT('',(9.84625379569717,-1.65500170988637,-4.6165990678486));
#533=CARTESIAN_POINT('',(9.82755801311116,-1.6238802639795,-4.66731347512163));
#534=CARTESIAN_POINT('',(9.80475271285616,-1.58264982459022,-4.72915824133261));
#535=CARTESIAN_POINT('',(9.7782844882674,-1.5294768682588,-4.80091079261641));
#536=CARTESIAN_POINT('',(9.75271491514091,-1.47260795638771,-4.87020329211198));
#537=CARTESIAN_POINT('',(9.73216133207753,-1.42211515130984,-4.92588408210764));
#538=CARTESIAN_POINT('',(9.71617900518133,-1.37983491573771,-4.96917072614172));
#539=CARTESIAN_POINT('',(9.70442269894548,-1.34716636323229,-5.0010065534129));
#540=CARTESIAN_POINT('',(9.69290912360575,-1.31355118854145,-5.03218022324192));
#541=CARTESIAN_POINT('',(9.68174482724339,-1.27930481846351,-5.0624036194126));
#542=CARTESIAN_POINT('',(9.6709046664577,-1.24437315303282,-5.09174522463209));
#543=CARTESIAN_POINT('',(9.6568878164672,-1.19691249397782,-5.12967991606835));
#544=CARTESIAN_POINT('',(9.64017694560359,-1.13592804439715,-5.17489606727299));
#545=CARTESIAN_POINT('',(9.62141308565248,-1.06011442836068,-5.22565397777603));
#546=CARTESIAN_POINT('',(9.60393960623986,-0.981667230545052,-5.2729097985288));
#547=CARTESIAN_POINT('',(9.59046215413629,-0.914081744185708,-5.30935039546828));
#548=CARTESIAN_POINT('',(9.58034145774463,-0.858669872660155,-5.33671073656676));
#549=CARTESIAN_POINT('',(9.57429296822176,-0.823462452398336,-5.35306061802108));
#550=CARTESIAN_POINT('',(9.56962632975348,-0.794969937570239,-5.36567427674471));
#551=CARTESIAN_POINT('',(9.56509604380807,-0.766392881836583,-5.37791881264757));
#552=CARTESIAN_POINT('',(9.5596787901345,-0.73046287228234,-5.39255965467548));
#553=CARTESIAN_POINT('',(9.55357001689807,-0.687032185420031,-5.40906801575592));
#554=CARTESIAN_POINT('',(9.54594269746151,-0.628702545034849,-5.42967845320041));
#555=CARTESIAN_POINT('',(9.53737374830512,-0.555006956765706,-5.4528306674133));
#556=CARTESIAN_POINT('',(9.52862544669107,-0.465325189825441,-5.47646443189982));
#557=CARTESIAN_POINT('',(9.52141343492532,-0.374398741792259,-5.49594576547596));
#558=CARTESIAN_POINT('',(9.5166937962331,-0.297571430681681,-5.50869350496059));
#559=CARTESIAN_POINT('',(9.5137052666721,-0.235488489680467,-5.51676515257655));
#560=CARTESIAN_POINT('',(9.5118599985277,-0.188556482340437,-5.52174885427606));
#561=CARTESIAN_POINT('',(9.51042398675616,-0.141503045687003,-5.52562714984774));
#562=CARTESIAN_POINT('',(9.50939843826506,-0.0944012923039129,-5.52839684431975));
#563=CARTESIAN_POINT('',(9.50878248428285,-0.0472429384475259,-5.53006033016138));
#564=CARTESIAN_POINT('',(9.50857677271272,1.17354171365316E-5,-5.53061588521511));
#565=CARTESIAN_POINT('',(9.50878248060858,0.0471959967790911,-5.53006034019835));
#566=CARTESIAN_POINT('',(9.50864534262372,1.87128516945611E-14,-5.53043070187003));
#567=CARTESIAN_POINT('',(0.,0.,0.));
#568=CARTESIAN_POINT('',(-2.84700949613003,-3.25302442129116E-16,10.6251840891791));
#569=CARTESIAN_POINT('',(-2.84700949613003,-0.347708336225044,10.6251840891791));
#570=CARTESIAN_POINT('',(-2.84700949613009,-1.04312438633027,10.5910204764363));
#571=CARTESIAN_POINT('',(-2.84700949613002,-2.0762031028854,10.4377777404933));
#572=CARTESIAN_POINT('',(-2.84700949612999,-3.08928671475976,10.1840134990396));
#573=CARTESIAN_POINT('',(-2.8470094961301,-4.07261884265523,9.83217164044204));
#574=CARTESIAN_POINT('',(-2.84700949613002,-5.01672941516733,9.38564059413531));
#575=CARTESIAN_POINT('',(-2.84700949613003,-5.91252614356274,8.84872069819402));
#576=CARTESIAN_POINT('',(-2.84700949613003,-6.7513820123902,8.22658278472633));
#577=CARTESIAN_POINT('',(-2.84700949613004,-7.52521838194239,7.52521838193411));
#578=CARTESIAN_POINT('',(-2.84700949613002,-8.2265827847241,6.75138201242108));
#579=CARTESIAN_POINT('',(-2.84700949613006,-8.8487206981946,5.91252614344756));
#580=CARTESIAN_POINT('',(-2.84700949613002,-9.38564059413514,5.01672941559716));
#581=CARTESIAN_POINT('',(-2.84700949613002,-9.8321716404421,4.07261884105121));
#582=CARTESIAN_POINT('',(-2.84700949613005,-10.1840134990396,3.08928672074608));
#583=CARTESIAN_POINT('',(-2.84700949613002,-10.4377777404933,2.07620308054422));
#584=CARTESIAN_POINT('',(-2.84700949613007,-10.5910204764363,1.04312446970868));
#585=CARTESIAN_POINT('',(-2.84700949613002,-10.6422658955505,-8.92450088600247E-17));
#586=CARTESIAN_POINT('',(-2.84700949613007,-10.5910204764363,-1.04312446970868));
#587=CARTESIAN_POINT('',(-2.84700949613003,-10.4377777404933,-2.07620308054422));
#588=CARTESIAN_POINT('',(-2.84700949613004,-10.1840134990396,-3.08928672074608));
#589=CARTESIAN_POINT('',(-2.84700949613006,-9.8321716404421,-4.07261884105119));
#590=CARTESIAN_POINT('',(-2.84700949613002,-9.38564059413514,-5.01672941559717));
#591=CARTESIAN_POINT('',(-2.84700949613006,-8.8487206981946,-5.91252614344756));
#592=CARTESIAN_POINT('',(-2.84700949613003,-8.22658278472411,-6.75138201242107));
#593=CARTESIAN_POINT('',(-2.84700949613005,-7.52521838194237,-7.52521838193412));
#594=CARTESIAN_POINT('',(-2.84700949613002,-6.75138201239022,-8.22658278472632));
#595=CARTESIAN_POINT('',(-2.84700949613002,-5.91252614356273,-8.84872069819402));
#596=CARTESIAN_POINT('',(-2.84700949613006,-5.01672941516733,-9.3856405941353));
#597=CARTESIAN_POINT('',(-2.84700949612994,-4.07261884265525,-9.83217164044207));
#598=CARTESIAN_POINT('',(-2.84700949613028,-3.08928671475975,-10.1840134990395));
#599=CARTESIAN_POINT('',(-2.84700949612908,-2.0762031028854,-10.4377777404935));
#600=CARTESIAN_POINT('',(-2.84700949613362,-1.04312438633026,-10.5910204764354));
#601=CARTESIAN_POINT('',(-2.84700949612221,-0.347708336225034,-10.6251840891812));
#602=CARTESIAN_POINT('',(-2.84700949613115,1.31454853923468E-15,-10.6251840891788));
#603=CARTESIAN_POINT('',(-2.84700949638591,-1.0301351126753E-15,-10.6251840891076));
#604=CARTESIAN_POINT('',(-2.84700949638517,1.15203930350924E-15,10.6251840891105));
#605=CARTESIAN_POINT('',(-2.84700949613115,1.31454853923468E-15,-10.6251840891788));
#606=CARTESIAN_POINT('',(-2.84700949612221,0.347708336225041,-10.6251840891812));
#607=CARTESIAN_POINT('',(-2.84700949613362,1.04312438633027,-10.5910204764353));
#608=CARTESIAN_POINT('',(-2.84700949612908,2.0762031028854,-10.4377777404935));
#609=CARTESIAN_POINT('',(-2.84700949613028,3.08928671475976,-10.1840134990395));
#610=CARTESIAN_POINT('',(-2.84700949612994,4.07261884265524,-9.83217164044207));
#611=CARTESIAN_POINT('',(-2.84700949613006,5.01672941516733,-9.3856405941353));
#612=CARTESIAN_POINT('',(-2.84700949613002,5.91252614356273,-8.84872069819402));
#613=CARTESIAN_POINT('',(-2.84700949613003,6.75138201239021,-8.22658278472632));
#614=CARTESIAN_POINT('',(-2.84700949613005,7.52521838194239,-7.52521838193411));
#615=CARTESIAN_POINT('',(-2.84700949613003,8.2265827847241,-6.75138201242107));
#616=CARTESIAN_POINT('',(-2.84700949613005,8.8487206981946,-5.91252614344757));
#617=CARTESIAN_POINT('',(-2.84700949613006,9.38564059413514,-5.01672941559714));
#618=CARTESIAN_POINT('',(-2.84700949613004,9.8321716404421,-4.07261884105119));
#619=CARTESIAN_POINT('',(-2.84700949613004,10.1840134990396,-3.08928672074608));
#620=CARTESIAN_POINT('',(-2.84700949613003,10.4377777404933,-2.07620308054422));
#621=CARTESIAN_POINT('',(-2.84700949613007,10.5910204764363,-1.04312446970868));
#622=CARTESIAN_POINT('',(-2.84700949613002,10.6422658955505,-8.92450088600247E-17));
#623=CARTESIAN_POINT('',(-2.84700949613007,10.5910204764363,1.04312446970868));
#624=CARTESIAN_POINT('',(-2.84700949613002,10.4377777404933,2.07620308054422));
#625=CARTESIAN_POINT('',(-2.84700949613005,10.1840134990396,3.08928672074608));
#626=CARTESIAN_POINT('',(-2.84700949613002,9.8321716404421,4.07261884105121));
#627=CARTESIAN_POINT('',(-2.84700949613002,9.38564059413514,5.01672941559717));
#628=CARTESIAN_POINT('',(-2.84700949613006,8.84872069819461,5.91252614344756));
#629=CARTESIAN_POINT('',(-2.84700949613002,8.2265827847241,6.75138201242108));
#630=CARTESIAN_POINT('',(-2.84700949613004,7.52521838194239,7.52521838193411));
#631=CARTESIAN_POINT('',(-2.84700949613003,6.75138201239021,8.22658278472633));
#632=CARTESIAN_POINT('',(-2.84700949613002,5.91252614356275,8.84872069819401));
#633=CARTESIAN_POINT('',(-2.84700949613002,5.01672941516733,9.38564059413532));
#634=CARTESIAN_POINT('',(-2.8470094961301,4.07261884265524,9.83217164044203));
#635=CARTESIAN_POINT('',(-2.84700949612999,3.08928671475976,10.1840134990396));
#636=CARTESIAN_POINT('',(-2.84700949613002,2.07620310288538,10.4377777404933));
#637=CARTESIAN_POINT('',(-2.84700949613009,1.04312438633028,10.5910204764363));
#638=CARTESIAN_POINT('',(-2.84700949613003,0.347708336225038,10.6251840891791));
#639=CARTESIAN_POINT('',(-2.84700949613003,-3.25302442129116E-16,10.6251840891791));
#640=CARTESIAN_POINT('',(-6.044429047709,-4.90353842500681E-12,-8.70774812952418));
#641=CARTESIAN_POINT('',(-6.044429047709,17.4154962590361,-8.7077481295239));
#642=CARTESIAN_POINT('',(-6.044429047709,17.415496259041,8.70774812951709));
#643=CARTESIAN_POINT('',(-6.044429047709,7.27795707687504E-15,8.70774812952719));
#644=CARTESIAN_POINT('',(-5.92101104382931,-4.88235111265418E-12,-8.81902251809028));
#645=CARTESIAN_POINT('',(-5.92101104382931,17.6380450361682,-8.81902251808996));
#646=CARTESIAN_POINT('',(-5.92101104382931,17.6380450361731,8.8190225180831));
#647=CARTESIAN_POINT('',(-5.92101104382931,5.2435345603003E-14,8.81902251809329));
#648=CARTESIAN_POINT('',(-5.66985027776897,-4.84076957969246E-12,-9.03783413881427));
#649=CARTESIAN_POINT('',(-5.66985027776897,18.0756682776159,-9.03783413881387));
#650=CARTESIAN_POINT('',(-5.66985027776897,18.0756682776209,9.03783413880691));
#651=CARTESIAN_POINT('',(-5.66985027776897,1.41316062328535E-13,9.03783413881728));
#652=CARTESIAN_POINT('',(-5.3476015548057,-4.72201860202663E-12,-9.29757096650023));
#653=CARTESIAN_POINT('',(-5.34760155480571,18.5951419329877,-9.29757096649959));
#654=CARTESIAN_POINT('',(-5.34760155480571,18.5951419329926,9.2975709664928));
#655=CARTESIAN_POINT('',(-5.34760155480571,1.774311633429E-13,9.29757096650324));
#656=CARTESIAN_POINT('',(-5.0863361879364,-4.54560089109835E-12,-9.49443041538339));
#657=CARTESIAN_POINT('',(-5.0863361879364,18.9888608307539,-9.4944304153824));
#658=CARTESIAN_POINT('',(-5.0863361879364,18.9888608307586,9.49443041537608));
#659=CARTESIAN_POINT('',(-5.0863361879364,1.18391466689253E-13,9.49443041538641));
#660=CARTESIAN_POINT('',(-4.88902421415586,-4.36244400646169E-12,-9.63594932373551));
#661=CARTESIAN_POINT('',(-4.88902421415586,19.2718986474582,-9.63594932373415));
#662=CARTESIAN_POINT('',(-4.88902421415586,19.2718986474626,9.63594932372839));
#663=CARTESIAN_POINT('',(-4.88902421415586,1.961680313259E-14,9.63594932373852));
#664=CARTESIAN_POINT('',(-4.69075556626246,-4.11737341781526E-12,-9.7706580369567));
#665=CARTESIAN_POINT('',(-4.69075556626246,19.5413160739006,-9.77065803695485));
#666=CARTESIAN_POINT('',(-4.69075556626246,19.5413160739046,9.77065803694991));
#667=CARTESIAN_POINT('',(-4.69075556626246,-1.45130937623714E-13,9.77065803695971));
#668=CARTESIAN_POINT('',(-4.4917943822402,-3.80300752754632E-12,-9.89796610899889));
#669=CARTESIAN_POINT('',(-4.4917943822402,19.7959322179852,-9.89796610899641));
#670=CARTESIAN_POINT('',(-4.4917943822402,19.7959322179886,9.89796610899258));
#671=CARTESIAN_POINT('',(-4.4917943822402,-3.83585344667286E-13,9.8979661090019));
#672=CARTESIAN_POINT('',(-4.29168901626502,-3.43053964132645E-12,-10.0177568239718));
#673=CARTESIAN_POINT('',(-4.29168901626502,20.0355136479313,-10.0177568239686));
#674=CARTESIAN_POINT('',(-4.29168901626502,20.035513647934,10.0177568239661));
#675=CARTESIAN_POINT('',(-4.29168901626502,-6.84622630154808E-13,10.0177568239748));
#676=CARTESIAN_POINT('',(-4.09006745439264,-3.0090965804456E-12,-10.1298607626095));
#677=CARTESIAN_POINT('',(-4.09006745439264,20.2597215252068,-10.1298607626054));
#678=CARTESIAN_POINT('',(-4.09006745439264,20.2597215252088,10.1298607626045));
#679=CARTESIAN_POINT('',(-4.09006745439264,-1.03921691635181E-12,10.1298607626125));
#680=CARTESIAN_POINT('',(-3.88653634572953,-2.5483588779234E-12,-10.2341226282398));
#681=CARTESIAN_POINT('',(-3.88653634572953,20.4682452564678,-10.2341226282348));
#682=CARTESIAN_POINT('',(-3.88653634572953,20.4682452564689,10.2341226282356));
#683=CARTESIAN_POINT('',(-3.88653634572953,-1.43778019283874E-12,10.2341226282428));
#684=CARTESIAN_POINT('',(-3.68070805529934,-2.05785870424249E-12,-10.3303833371905));
#685=CARTESIAN_POINT('',(-3.68070805529934,20.6607666743697,-10.3303833371846));
#686=CARTESIAN_POINT('',(-3.68070805529934,20.6607666743699,10.3303833371872));
#687=CARTESIAN_POINT('',(-3.68070805529934,-1.87087506982742E-12,10.3303833371935));
#688=CARTESIAN_POINT('',(-3.47219342140627,-1.5471679683038E-12,-10.4184848311962));
#689=CARTESIAN_POINT('',(-3.47219342140627,20.8369696623813,-10.4184848311892));
#690=CARTESIAN_POINT('',(-3.47219342140627,20.8369696623806,10.4184848311937));
#691=CARTESIAN_POINT('',(-3.47219342140627,-2.32902380768937E-12,10.4184848311992));
#692=CARTESIAN_POINT('',(-3.29586863133036,-1.11273465127729E-12,-10.4849714196702));
#693=CARTESIAN_POINT('',(-3.29586863133036,20.9699428393298,-10.4849714196623));
#694=CARTESIAN_POINT('',(-3.29586863133036,20.9699428393282,10.4849714196686));
#695=CARTESIAN_POINT('',(-3.29586863133036,-2.7238035058864E-12,10.4849714196732));
#696=CARTESIAN_POINT('',(-3.15307683824142,-7.64655347355273E-13,-10.5339228266339));
#697=CARTESIAN_POINT('',(-3.15307683824142,21.0678456532574,-10.5339228266253));
#698=CARTESIAN_POINT('',(-3.15307683824142,21.0678456532551,10.5339228266329));
#699=CARTESIAN_POINT('',(-3.15307683824142,-3.04268585144271E-12,10.5339228266369));
#700=CARTESIAN_POINT('',(-3.06306975123773,-5.47880248271113E-13,-10.5627350577659));
#701=CARTESIAN_POINT('',(-3.06306975123773,21.1254701155216,-10.5627350577569));
#702=CARTESIAN_POINT('',(-3.06306975123773,21.1254701155189,10.5627350577653));
#703=CARTESIAN_POINT('',(-3.06306975123773,-3.24227522819012E-12,10.5627350577689));
#704=CARTESIAN_POINT('',(-2.9905826034356,-3.75521969116036E-13,-10.5847058358087));
#705=CARTESIAN_POINT('',(-2.9905826034356,21.1694116716074,-10.5847058357993));
#706=CARTESIAN_POINT('',(-2.9905826034356,21.1694116716043,10.5847058358084));
#707=CARTESIAN_POINT('',(-2.9905826034356,-3.40152805584999E-12,10.5847058358117));
#708=CARTESIAN_POINT('',(-2.93597003138857,-2.46935146756743E-13,-10.6006411102012));
#709=CARTESIAN_POINT('',(-2.93597003138857,21.2012822203926,-10.6006411101916));
#710=CARTESIAN_POINT('',(-2.93597003138857,21.2012822203893,10.6006411102012));
#711=CARTESIAN_POINT('',(-2.93597003138857,-3.52060932248174E-12,10.6006411102042));
#712=CARTESIAN_POINT('',(-2.89024982820752,-1.40466936378443E-13,-10.6134689297082));
#713=CARTESIAN_POINT('',(-2.89024982820752,21.2269378594065,-10.6134689296983));
#714=CARTESIAN_POINT('',(-2.89024982820752,21.226937859403,10.6134689297083));
#715=CARTESIAN_POINT('',(-2.89024982820752,-3.61942539062347E-12,10.6134689297112));
#716=CARTESIAN_POINT('',(-2.85354176000249,-5.57914837865212E-14,-10.6234526369148));
#717=CARTESIAN_POINT('',(-2.85354176000249,21.2469052738198,-10.6234526369048));
#718=CARTESIAN_POINT('',(-2.85354176000249,21.2469052738162,10.6234526369151));
#719=CARTESIAN_POINT('',(-2.85354176000249,-3.69814515322198E-12,10.6234526369178));
#720=CARTESIAN_POINT('',(-2.8351484058393,-1.36123231256356E-14,-10.6283622587378));
#721=CARTESIAN_POINT('',(-2.8351484058393,21.256724517466,-10.6283622587278));
#722=CARTESIAN_POINT('',(-2.8351484058393,21.2567245174623,10.6283622587382));
#723=CARTESIAN_POINT('',(-2.8351484058393,-3.73739548162285E-12,10.6283622587409));
#724=CARTESIAN_POINT('',(-2.82595572539137,7.49334931447434E-15,-10.6308254300401));
#725=CARTESIAN_POINT('',(-2.82595572539137,21.2616508600704,-10.63082543003));
#726=CARTESIAN_POINT('',(-2.82595572539137,21.2616508600667,10.6308254300405));
#727=CARTESIAN_POINT('',(-2.82595572539137,-3.7570317548761E-12,10.6308254300431));
#728=CARTESIAN_POINT('',(-2.84700949664066,-4.06783123919859E-14,-10.6251840890364));
#729=CARTESIAN_POINT('',(-2.99321514320765,-1.28238980796319E-13,-10.5860084040963));
#730=CARTESIAN_POINT('',(-3.28008708228862,-3.24217502753571E-13,-10.4960931477756));
#731=CARTESIAN_POINT('',(-3.69683209415258,-6.69524814791393E-13,-10.3277724956065));
#732=CARTESIAN_POINT('',(-4.03536397070817,-8.67412360656436E-13,-10.1606681863547));
#733=CARTESIAN_POINT('',(-4.30246246045648,-9.96887083889551E-13,-10.0115052289012));
#734=CARTESIAN_POINT('',(-4.50130814780507,-1.05133976287476E-12,-9.89204647207558));
#735=CARTESIAN_POINT('',(-4.69904373936044,-1.04782239195283E-12,-9.76516580389304));
#736=CARTESIAN_POINT('',(-4.89610312884033,-9.87791304824889E-13,-9.63098429673383));
#737=CARTESIAN_POINT('',(-5.09219820717783,-8.90407056401573E-13,-9.49010086898916));
#738=CARTESIAN_POINT('',(-5.35184981525466,-7.07353981824709E-13,-9.29421069442729));
#739=CARTESIAN_POINT('',(-5.67210994837375,-4.04754270234604E-13,-9.03588761312941));
#740=CARTESIAN_POINT('',(-5.92174713836262,-1.43112618590112E-13,-8.81835885093555));
#741=CARTESIAN_POINT('',(-6.04442904519688,-2.28236569465091E-14,-8.70774813178913));
#742=CARTESIAN_POINT('',(-6.04442904633,1.07408748986801E-15,-8.70774813048024));
#743=CARTESIAN_POINT('',(-6.04442904772505,-2.66597896864578E-16,8.70774812951188));
#744=CARTESIAN_POINT('',(-6.04442904777176,0.284960391176801,8.70774812947946));
#745=CARTESIAN_POINT('',(-6.04442904771183,0.85488066349476,8.67974973133222));
#746=CARTESIAN_POINT('',(-6.04442904773599,1.70152851318977,8.55416139928573));
#747=CARTESIAN_POINT('',(-6.04442904772945,2.53178960347226,8.34619181680513));
#748=CARTESIAN_POINT('',(-6.0444290477313,3.33766820524513,8.05784384463031));
#749=CARTESIAN_POINT('',(-6.0444290477308,4.11140322977173,7.69189443136783));
#750=CARTESIAN_POINT('',(-6.04442904773086,4.84554319578402,7.2518678699137));
#751=CARTESIAN_POINT('',(-6.04442904773092,5.5330179314122,6.74200185659803));
#752=CARTESIAN_POINT('',(-6.04442904773084,6.16720667985708,6.16720667985035));
#753=CARTESIAN_POINT('',(-6.04442904773085,6.74200185659626,5.53301793143751));
#754=CARTESIAN_POINT('',(-6.04442904773091,7.25186786991415,4.84554319568961));
#755=CARTESIAN_POINT('',(-6.04442904773087,7.69189443136766,4.11140323012396));
#756=CARTESIAN_POINT('',(-6.04442904773086,8.05784384463065,3.33766820393059));
#757=CARTESIAN_POINT('',(-6.04442904773088,8.34619181680412,2.53178960837828));
#758=CARTESIAN_POINT('',(-6.04442904773088,8.55416139928929,1.70152849488031));
#759=CARTESIAN_POINT('',(-6.04442904773088,8.67974973131899,0.854880731826603));
#760=CARTESIAN_POINT('',(-6.04442904773088,8.72174732860225,-2.9004627879508E-15));
#761=CARTESIAN_POINT('',(-6.04442904773088,8.67974973131899,-0.854880731826598));
#762=CARTESIAN_POINT('',(-6.04442904773088,8.55416139928929,-1.7015284948803));
#763=CARTESIAN_POINT('',(-6.04442904773088,8.34619181680412,-2.53178960837829));
#764=CARTESIAN_POINT('',(-6.04442904773089,8.05784384463065,-3.33766820393054));
#765=CARTESIAN_POINT('',(-6.04442904773086,7.69189443136766,-4.11140323012398));
#766=CARTESIAN_POINT('',(-6.04442904773091,7.25186786991415,-4.84554319568961));
#767=CARTESIAN_POINT('',(-6.04442904773088,6.74200185659626,-5.53301793143747));
#768=CARTESIAN_POINT('',(-6.04442904773089,6.16720667985708,-6.16720667985031));
#769=CARTESIAN_POINT('',(-6.0444290477309,5.5330179314122,-6.74200185659804));
#770=CARTESIAN_POINT('',(-6.04442904773088,4.84554319578402,-7.25186786991368));
#771=CARTESIAN_POINT('',(-6.04442904773077,4.11140322977173,-7.69189443136786));
#772=CARTESIAN_POINT('',(-6.04442904773124,3.33766820524512,-8.05784384463037));
#773=CARTESIAN_POINT('',(-6.04442904772954,2.53178960347226,-8.34619181680506));
#774=CARTESIAN_POINT('',(-6.04442904773594,1.70152851318978,-8.55416139928577));
#775=CARTESIAN_POINT('',(-6.04442904771193,0.854880663494753,-8.67974973133215));
#776=CARTESIAN_POINT('',(-6.04442904777173,0.284960391176803,-8.70774812947948));
#777=CARTESIAN_POINT('',(-6.04442904772505,1.07408747132245E-15,-8.70774812951188));
#778=CARTESIAN_POINT('',(-6.0444290464618,1.13584890750725E-15,8.70774813065141));
#779=CARTESIAN_POINT('',(-2.84700949664031,-2.57923283812669E-14,10.6251840890418));
#780=CARTESIAN_POINT('',(-2.9932151432074,-1.59069751527762E-13,10.586008404101));
#781=CARTESIAN_POINT('',(-3.28008708228856,-4.39033680370863E-13,10.4960931477793));
#782=CARTESIAN_POINT('',(-3.6968320941528,-8.67665138834034E-13,10.3277724956093));
#783=CARTESIAN_POINT('',(-4.0353639707086,-1.11815006194948E-12,10.1606681863571));
#784=CARTESIAN_POINT('',(-4.30246246045709,-1.26084826161549E-12,10.0115052289035));
#785=CARTESIAN_POINT('',(-4.5013081478058,-1.32596118099507E-12,9.89204647207769));
#786=CARTESIAN_POINT('',(-4.6990437393613,-1.31258580146614E-12,9.76516580389503));
#787=CARTESIAN_POINT('',(-4.89610312884131,-1.26007784671235E-12,9.63098429673568));
#788=CARTESIAN_POINT('',(-5.09219820717894,-1.12121014344445E-12,9.49010086899086));
#789=CARTESIAN_POINT('',(-5.35184981525592,-9.07876138109806E-13,9.29421069442881));
#790=CARTESIAN_POINT('',(-5.67210994837521,-5.28858360562333E-13,9.03588761313083));
#791=CARTESIAN_POINT('',(-5.92174713836421,-1.978833292653E-13,8.81835885093717));
#792=CARTESIAN_POINT('',(-6.04442904519853,-3.65415547549256E-14,8.70774813179095));
#793=CARTESIAN_POINT('',(-6.044429047709,2.19392081681794E-15,8.70774812952749));
#794=CARTESIAN_POINT('',(-6.044429047709,-17.415496259048,8.70774812952111));
#795=CARTESIAN_POINT('',(-6.044429047709,-17.4154962590435,-8.70774812952692));
#796=CARTESIAN_POINT('',(-6.044429047709,4.55999638566233E-12,-8.70774812952419));
#797=CARTESIAN_POINT('',(-5.92101104382934,-1.73045660190586E-14,8.81902251809327));
#798=CARTESIAN_POINT('',(-5.92101104382934,-17.6380450361795,8.81902251808684));
#799=CARTESIAN_POINT('',(-5.92101104382935,-17.638045036175,-8.81902251809268));
#800=CARTESIAN_POINT('',(-5.92101104382934,4.55614187872604E-12,-8.81902251808996));
#801=CARTESIAN_POINT('',(-5.66985027776907,-5.57287524137141E-14,9.03783413881682));
#802=CARTESIAN_POINT('',(-5.66985027776907,-18.0756682776266,9.03783413881033));
#803=CARTESIAN_POINT('',(-5.66985027776907,-18.075668277622,-9.03783413881623));
#804=CARTESIAN_POINT('',(-5.66985027776907,4.54864335081894E-12,-9.03783413881352));
#805=CARTESIAN_POINT('',(-5.34760155480589,-3.19488639224137E-14,9.2975709665026));
#806=CARTESIAN_POINT('',(-5.34760155480589,-18.595141932998,9.29757096649614));
#807=CARTESIAN_POINT('',(-5.34760155480589,-18.5951419329935,-9.29757096650184));
#808=CARTESIAN_POINT('',(-5.34760155480589,4.47034868428862E-12,-9.29757096649929));
#809=CARTESIAN_POINT('',(-5.08633618793665,7.24873469756604E-14,9.49443041538572));
#810=CARTESIAN_POINT('',(-5.08633618793666,-18.9888608307641,9.49443041537948));
#811=CARTESIAN_POINT('',(-5.08633618793666,-18.9888608307598,-9.49443041538468));
#812=CARTESIAN_POINT('',(-5.08633618793666,4.32459260579818E-12,-9.49443041538241));
#813=CARTESIAN_POINT('',(-4.88902421415617,2.03897333074579E-13,9.63594932373783));
#814=CARTESIAN_POINT('',(-4.88902421415617,-19.2718986474681,9.63594932373184));
#815=CARTESIAN_POINT('',(-4.88902421415617,-19.2718986474641,-9.63594932373646));
#816=CARTESIAN_POINT('',(-4.88902421415617,4.16347730618363E-12,-9.63594932373452));
#817=CARTESIAN_POINT('',(-4.69075556626282,3.99710509743504E-13,9.77065803695903));
#818=CARTESIAN_POINT('',(-4.69075556626282,-19.5413160739102,9.77065803695344));
#819=CARTESIAN_POINT('',(-4.69075556626283,-19.5413160739067,-9.77065803695721));
#820=CARTESIAN_POINT('',(-4.69075556626282,3.93938701845704E-12,-9.77065803695572));
#821=CARTESIAN_POINT('',(-4.49179438224061,6.67524336633298E-13,9.8979661090012));
#822=CARTESIAN_POINT('',(-4.49179438224061,-19.7959322179943,9.89796610899614));
#823=CARTESIAN_POINT('',(-4.49179438224062,-19.7959322179913,-9.89796610899879));
#824=CARTESIAN_POINT('',(-4.49179438224061,3.64484815111693E-12,-9.89796610899789));
#825=CARTESIAN_POINT('',(-4.29168901626549,9.96188145344262E-13,10.0177568239741));
#826=CARTESIAN_POINT('',(-4.29168901626549,-20.0355136479397,10.0177568239697));
#827=CARTESIAN_POINT('',(-4.29168901626549,-20.0355136479374,-10.017756823971));
#828=CARTESIAN_POINT('',(-4.29168901626549,3.29103579631856E-12,-10.0177568239708));
#829=CARTESIAN_POINT('',(-4.09006745439317,1.37663702344102E-12,10.1298607626118));
#830=CARTESIAN_POINT('',(-4.09006745439317,-20.2597215252147,10.1298607626082));
#831=CARTESIAN_POINT('',(-4.09006745439317,-20.2597215252131,-10.1298607626079));
#832=CARTESIAN_POINT('',(-4.09006745439317,2.88705035362962E-12,-10.1298607626085));
#833=CARTESIAN_POINT('',(-3.88653634573011,1.79924718267314E-12,10.2341226282422));
#834=CARTESIAN_POINT('',(-3.88653634573011,-20.468245256475,10.2341226282394));
#835=CARTESIAN_POINT('',(-3.88653634573012,-20.4682452564743,-10.2341226282374));
#836=CARTESIAN_POINT('',(-3.88653634573011,2.44254813384919E-12,-10.2341226282389));
#837=CARTESIAN_POINT('',(-3.68070805529999,2.25454458208605E-12,10.3303833371932));
#838=CARTESIAN_POINT('',(-3.68070805529999,-20.6607666743765,10.3303833371913));
#839=CARTESIAN_POINT('',(-3.68070805529999,-20.6607666743768,-10.3303833371874));
#840=CARTESIAN_POINT('',(-3.68070805529999,1.96703649543847E-12,-10.3303833371899));
#841=CARTESIAN_POINT('',(-3.47219342140698,2.73301506735685E-12,10.4184848311992));
#842=CARTESIAN_POINT('',(-3.47219342140698,-20.8369696623879,10.4184848311982));
#843=CARTESIAN_POINT('',(-3.47219342140698,-20.8369696623892,-10.4184848311924));
#844=CARTESIAN_POINT('',(-3.47219342140698,1.47006269497869E-12,-10.4184848311958));
#845=CARTESIAN_POINT('',(-3.29586863133112,3.14313183650945E-12,10.4849714196736));
#846=CARTESIAN_POINT('',(-3.29586863133113,-20.9699428393364,10.4849714196735));
#847=CARTESIAN_POINT('',(-3.29586863133113,-20.9699428393385,-10.484971419666));
#848=CARTESIAN_POINT('',(-3.29586863133112,1.04597990658725E-12,-10.4849714196703));
#849=CARTESIAN_POINT('',(-3.15307683824223,3.4733069909445E-12,10.5339228266377));
#850=CARTESIAN_POINT('',(-3.15307683824223,-21.0678456532642,10.5339228266383));
#851=CARTESIAN_POINT('',(-3.15307683824223,-21.067845653267,-10.5339228266294));
#852=CARTESIAN_POINT('',(-3.15307683824223,7.05520542512799E-13,-10.5339228266344));
#853=CARTESIAN_POINT('',(-3.06306975123858,3.67954352384759E-12,10.56273505777));
#854=CARTESIAN_POINT('',(-3.06306975123858,-21.1254701155286,10.562735057771));
#855=CARTESIAN_POINT('',(-3.06306975123858,-21.1254701155318,-10.5627350577613));
#856=CARTESIAN_POINT('',(-3.06306975123858,4.9323011210585E-13,-10.5627350577667));
#857=CARTESIAN_POINT('',(-2.99058260343646,3.84386536249519E-12,10.5847058358131));
#858=CARTESIAN_POINT('',(-2.99058260343646,-21.1694116716147,10.5847058358144));
#859=CARTESIAN_POINT('',(-2.99058260343646,-21.1694116716182,-10.5847058358041));
#860=CARTESIAN_POINT('',(-2.99058260343646,3.24291399313906E-13,-10.5847058358098));
#861=CARTESIAN_POINT('',(-2.93597003138946,3.96662326870952E-12,10.6006411102059));
#862=CARTESIAN_POINT('',(-2.93597003138946,-21.2012822204001,10.6006411102074));
#863=CARTESIAN_POINT('',(-2.93597003138946,-21.2012822204038,-10.6006411101966));
#864=CARTESIAN_POINT('',(-2.93597003138946,1.98184651941931E-13,-10.6006411102026));
#865=CARTESIAN_POINT('',(-2.89024982820841,4.06839911421719E-12,10.613468929713));
#866=CARTESIAN_POINT('',(-2.89024982820841,-21.2269378594142,10.6134689297148));
#867=CARTESIAN_POINT('',(-2.89024982820841,-21.2269378594182,-10.6134689297035));
#868=CARTESIAN_POINT('',(-2.89024982820841,9.37127899168226E-14,-10.6134689297097));
#869=CARTESIAN_POINT('',(-2.8535417600034,4.14942249299909E-12,10.6234526369198));
#870=CARTESIAN_POINT('',(-2.8535417600034,-21.2469052738277,10.6234526369217));
#871=CARTESIAN_POINT('',(-2.8535417600034,-21.2469052738318,-10.6234526369101));
#872=CARTESIAN_POINT('',(-2.8535417600034,1.05910024224069E-14,-10.6234526369165));
#873=CARTESIAN_POINT('',(-2.83514840584021,4.18980567499838E-12,10.628362258743));
#874=CARTESIAN_POINT('',(-2.83514840584021,-21.256724517474,10.6283622587449));
#875=CARTESIAN_POINT('',(-2.83514840584021,-21.2567245174782,-10.6283622587332));
#876=CARTESIAN_POINT('',(-2.83514840584021,-3.08241420707174E-14,-10.6283622587397));
#877=CARTESIAN_POINT('',(-2.82595572539228,4.21001030212784E-12,10.6308254300452));
#878=CARTESIAN_POINT('',(-2.82595572539228,-21.2616508600784,10.6308254300472));
#879=CARTESIAN_POINT('',(-2.82595572539229,-21.2616508600827,-10.6308254300354));
#880=CARTESIAN_POINT('',(-2.82595572539228,-5.1546503403383E-14,-10.6308254300419));
#881=CARTESIAN_POINT('',(-6.04442904772505,1.07408747132245E-15,-8.70774812951188));
#882=CARTESIAN_POINT('',(-6.04442904777173,-0.284960391176792,-8.70774812947948));
#883=CARTESIAN_POINT('',(-6.04442904771193,-0.85488066349475,-8.67974973133215));
#884=CARTESIAN_POINT('',(-6.04442904773594,-1.70152851318978,-8.55416139928577));
#885=CARTESIAN_POINT('',(-6.04442904772954,-2.53178960347226,-8.34619181680506));
#886=CARTESIAN_POINT('',(-6.04442904773123,-3.33766820524513,-8.05784384463036));
#887=CARTESIAN_POINT('',(-6.04442904773076,-4.11140322977172,-7.69189443136787));
#888=CARTESIAN_POINT('',(-6.0444290477309,-4.84554319578402,-7.25186786991367));
#889=CARTESIAN_POINT('',(-6.04442904773085,-5.5330179314122,-6.74200185659809));
#890=CARTESIAN_POINT('',(-6.0444290477309,-6.16720667985708,-6.16720667985029));
#891=CARTESIAN_POINT('',(-6.04442904773088,-6.74200185659626,-5.53301793143748));
#892=CARTESIAN_POINT('',(-6.04442904773091,-7.25186786991415,-4.84554319568961));
#893=CARTESIAN_POINT('',(-6.04442904773086,-7.69189443136766,-4.11140323012398));
#894=CARTESIAN_POINT('',(-6.04442904773089,-8.05784384463065,-3.33766820393054));
#895=CARTESIAN_POINT('',(-6.04442904773088,-8.34619181680412,-2.53178960837829));
#896=CARTESIAN_POINT('',(-6.04442904773088,-8.55416139928929,-1.7015284948803));
#897=CARTESIAN_POINT('',(-6.04442904773088,-8.67974973131899,-0.854880731826598));
#898=CARTESIAN_POINT('',(-6.04442904773088,-8.72174732860225,-2.81121777909078E-15));
#899=CARTESIAN_POINT('',(-6.04442904773088,-8.67974973131899,0.854880731826603));
#900=CARTESIAN_POINT('',(-6.04442904773088,-8.55416139928929,1.70152849488031));
#901=CARTESIAN_POINT('',(-6.04442904773088,-8.34619181680412,2.53178960837828));
#902=CARTESIAN_POINT('',(-6.04442904773087,-8.05784384463064,3.3376682039306));
#903=CARTESIAN_POINT('',(-6.04442904773087,-7.69189443136766,4.11140323012396));
#904=CARTESIAN_POINT('',(-6.04442904773091,-7.25186786991415,4.84554319568961));
#905=CARTESIAN_POINT('',(-6.04442904773086,-6.74200185659624,5.53301793143751));
#906=CARTESIAN_POINT('',(-6.04442904773084,-6.16720667985708,6.16720667985035));
#907=CARTESIAN_POINT('',(-6.04442904773092,-5.5330179314122,6.74200185659803));
#908=CARTESIAN_POINT('',(-6.04442904773086,-4.84554319578401,7.2518678699137));
#909=CARTESIAN_POINT('',(-6.0444290477308,-4.11140322977174,7.69189443136783));
#910=CARTESIAN_POINT('',(-6.04442904773131,-3.33766820524512,8.05784384463032));
#911=CARTESIAN_POINT('',(-6.04442904772945,-2.53178960347226,8.34619181680513));
#912=CARTESIAN_POINT('',(-6.04442904773599,-1.70152851318978,8.55416139928573));
#913=CARTESIAN_POINT('',(-6.04442904771183,-0.854880663494751,8.67974973133222));
#914=CARTESIAN_POINT('',(-6.04442904777176,-0.2849603911768,8.70774812947946));
#915=CARTESIAN_POINT('',(-6.04442904772505,-2.66597896864578E-16,8.70774812951188));
#916=CARTESIAN_POINT('',(0.,0.,0.));
#917=MECHANICAL_DESIGN_GEOMETRIC_PRESENTATION_REPRESENTATION('',(#100),
#918);
#918=(
GEOMETRIC_REPRESENTATION_CONTEXT(3)
GLOBAL_UNCERTAINTY_ASSIGNED_CONTEXT((#919))
GLOBAL_UNIT_ASSIGNED_CONTEXT((#922,#921,#920))
REPRESENTATION_CONTEXT('Open CASCADE STEP translator 7.5 1.1',
'TOP_LEVEL_ASSEMBLY_PART')
);
#919=UNCERTAINTY_MEASURE_WITH_UNIT(LENGTH_MEASURE(0.0002),#922,
'DISTANCE_ACCURACY_VALUE','Maximum Tolerance applied to model');
#920=(
NAMED_UNIT(*)
SI_UNIT($,.STERADIAN.)
SOLID_ANGLE_UNIT()
);
#921=(
NAMED_UNIT(*)
PLANE_ANGLE_UNIT()
SI_UNIT($,.RADIAN.)
);
#922=(
LENGTH_UNIT()
NAMED_UNIT(*)
SI_UNIT($,.METRE.)
);
#923=PRODUCT_DEFINITION_SHAPE('','',#924);
#924=PRODUCT_DEFINITION('','',#926,#925);
#925=PRODUCT_DEFINITION_CONTEXT('',#932,'design');
#926=PRODUCT_DEFINITION_FORMATION_WITH_SPECIFIED_SOURCE('','',#928,
 .NOT_KNOWN.);
#927=PRODUCT_RELATED_PRODUCT_CATEGORY('','',(#928));
#928=PRODUCT('Open CASCADE STEP translator 7.5 1.1',
'Open CASCADE STEP translator 7.5 1.1',
'Open CASCADE STEP translator 7.5 1.1',(#930));
#929=PRODUCT_CATEGORY('','');
#930=PRODUCT_CONTEXT('',#932,'mechanical');
#931=APPLICATION_PROTOCOL_DEFINITION('international standard',
'ap242_managed_model_based_3d_engineering',2020,#932);
#932=APPLICATION_CONTEXT('managed model based 3d engineering');
ENDSEC;
END-ISO-10303-21;
